<?xml version="1.0" encoding="utf-8"?>
<!-- Generator: Adobe Illustrator 27.0.1, SVG Export Plug-In . SVG Version: 6.00 Build 0)  -->
<svg version="1.1" id="Layer_1" xmlns="http://www.w3.org/2000/svg" xmlns:xlink="http://www.w3.org/1999/xlink" x="0px" y="0px"
	 viewBox="0 0 800 400" style="enable-background:new 0 0 800 400;" xml:space="preserve">
<style type="text/css">
	.st0{fill:#4A2FBD;}
	.st1{display:none;fill:none;}
</style>
<g transform="matrix(1,0,0,1,1.7053025658242404e-13,0)">
	<g id="tight-bounds" transform="matrix(1,0,0,1,-5.684341886080802e-14,0)">
		<g>
			<g>
				<path class="st0" d="M264.2,12.9c0-1.2,0.6-2.5,1.9-2.5c1.2,0,2.5,0.6,2.5,2.5c0.6,0,1.9,0,2.5-0.6c2.5,0,5-0.6,6.8,0
					c1.9,0.6,3.1,0.6,5,1.2c1.9,0.6,3.1,0,4.3-0.6c2.5-0.6,4.3-1.9,6.8-2.5c1.2-0.6,1.9-0.6,3.1-0.6c1.2-0.6,2.5-0.6,4.3-1.2
					c3.1-0.6,6.2-1.2,8.7-2.5c2.5-1.2,5-1.2,7.4-1.9c1.2,0,1.9-0.6,3.1-1.2c0.6,0,0.6-0.6,1.2-1.2c1.2-0.6,1.9-1.2,3.1-0.6
					c0.6,0.6,1.9,0.6,2.5,0h0.6c3.7,0,7.4-0.6,11.8,0c0.6,0,1.2,0,1.2,0c1.9-1.2,4.3-1.2,6.8-1.2c0.6,0,1.9,0,2.5,0h0.6
					c2.5,0,5,0,6.8,0.6c1.9,0,3.1,0.6,5,1.2c1.9,0,3.1,0,5,0.6c1.2,0,2.5,0,3.7,0c0.6,0,1.2,0,1.2,0c2.5,0.6,5,0.6,7.4,0.6
					c1.9,0.6,3.7,1.2,6.2,1.2c0.6,0,1.2,0,1.9,0c0.6,0,1.2,0.6,1.9,0.6l0.6,0.6c2.5,0,4.3,1.2,6.8,1.2c0.6,0,1.9,0,2.5,0.6
					c1.9,1.2,4.3,1.9,6.8,1.9c1.2,0,1.9,0.6,2.5,1.2c1.9,0.6,3.1,1.2,5,1.9c1.2,0.6,2.5,0,3.7,0.6c1.9,0.6,4.3,1.2,6.2,3.1
					c1.2,1.2,2.5,1.2,4.3,2.5c0.6,0,1.2,0.6,1.9,1.2c1.9,1.2,3.7,2.5,5.6,3.1c0.6,0,1.2,0.6,1.9,0.6c1.9,1.2,3.7,3.1,6.2,4.3
					c1.2,0.6,1.9,1.2,3.1,1.9h0.6c1.9,1.9,4.3,3.1,6.2,5s3.1,3.1,5.6,4.3c0,0,0,0,0,0.6c0.6,1.2,1.2,1.9,2.5,2.5
					c1.2,0.6,1.9,1.2,2.5,1.9c1.9,1.2,3.7,2.5,5,3.7c0.6,0.6,1.2,1.2,2.5,2.5c0.6,0.6,1.2,1.2,1.9,1.2c2.5,0.6,3.7,2.5,5.6,4.3
					c1.2,1.2,3.1,3.1,4.3,4.3c0.6,0.6,1.2,1.9,1.9,3.1c1.2,3.7,3.1,7.4,5,10.5c0,0,0,0.6,0.6,1.2v0.6c1.2,1.2,1.9,3.1,3.1,4.3
					c0.6,0.6,0.6,1.2,1.2,1.9c1.2,1.9,1.9,4.3,3.1,6.2c1.9,3.1,3.1,6.2,4.3,9.3v0.6c0.6,1.2,1.2,2.5,1.9,4.3c0,1.2,1.2,2.5,1.9,4.3
					c0.6,3.1,2.5,6.2,3.1,9.9c0,0.6,0.6,1.2,0.6,2.5c0.6,1.9,1.2,3.7,1.9,5.6c0,0.6,0.6,1.2,1.2,1.9c1.2,1.2,1.2,2.5,1.2,3.7
					c-0.6,2.5,0,5,0.6,7.4c0,0.6,0,1.2,0,2.5c0.6,2.5,1.2,5.6,1.2,8.1c0,0.6,0,1.9,0,2.5c0,1.9,0.6,3.7,1.9,5.6
					c0,0.6,0.6,0.6,0.6,0.6c0.6,0.6,1.2,1.9,1.9,2.5c0.6,0.6,0.6,0.6,1.2,1.2c1.2,1.2,1.9,2.5,1.9,4.3c0,0.6-0.6,1.9-0.6,2.5
					s0,1.9,0.6,2.5s0.6,1.2,0.6,1.9c0,0.6-0.6,1.2-1.2,1.2l0,0c-0.6,1.9-3.1,2.5-3.7,4.3c-0.6,2.5-1.2,5-1.9,7.4
					c-0.6,1.9-0.6,3.1-0.6,5s-0.6,3.1-0.6,5c-0.6,2.5-1.2,5-1.9,7.4c0,1.2-0.6,2.5-0.6,3.7c0.6,0.6,1.2,1.2,1.9,1.2
					c1.2,1.2,2.5,2.5,3.7,3.7c0.6,0.6,0.6,1.2,0,1.2c-0.6,0.6-1.2,0.6-1.9,0.6c-0.6-0.6-1.9-1.2-2.5-1.2c-0.6-0.6-1.9-1.2-3.1-0.6
					c0,1.2-0.6,2.5-0.6,3.1c-0.6,1.2-1.2,3.1-1.2,4.3c-0.6,2.5-1.9,4.3-2.5,6.8c-1.2,3.1-2.5,5.6-3.7,8.1c-0.6,1.2-1.2,2.5-1.9,3.7
					l0,0c0,1.9-1.9,3.7-2.5,5.6c-1.2,2.5-2.5,5-3.7,8.1c-0.6,1.2-1.2,2.5-1.9,3.1c-1.2,3.1-2.5,5.6-4.3,8.1
					c-1.2,1.9-2.5,3.1-3.7,3.7c-1.2,1.2-2.5,2.5-3.7,3.7c-0.6,0.6-1.2,1.2-1.9,1.9c-0.6,0.6-0.6,0.6-1.2,1.2c-1.2,1.9-3.1,3.1-4.3,5
					c-1.2,1.2-1.9,2.5-3.7,3.7c-1.2,1.2-2.5,3.1-4.3,3.7c-0.6,0.6-1.2,1.9-1.9,2.5c-0.6,0.6-1.2,1.9-1.9,2.5c0,1.2,0.6,2.5,0.6,3.1
					c0,1.9-1.9,2.5-3.1,1.2c-1.9-1.2-1.9-1.2-3.7,0c-1.9,1.2-3.7,3.1-6.2,3.7c-0.6,0-0.6,0.6-1.2,0.6c-1.2,0.6-1.9,1.9-3.1,2.5
					c-1.2,1.2-3.1,1.9-4.3,3.1c-0.6,0.6-1.2,0.6-1.9,1.2c-1.9,1.2-3.7,1.9-5.6,3.7c-0.6,0.6-1.2,0.6-1.9,1.2c0,0.6,0,0.6,0,1.2
					c0,1.2-1.2,2.5-3.1,1.9c-1.9-0.6-3.1,0-5,0c-1.9,0.6-3.7,1.9-5.6,2.5c-0.6,0-1.2,0.6-1.9,1.2c-1.9,1.2-3.7,1.9-5.6,2.5
					c-1.2,0-2.5,1.2-3.7,1.2c-0.6,0-1.2,0.6-1.9,0.6h-0.6c-2.5,1.9-5,3.1-7.4,5c-0.6,0-0.6,0.6-1.2,1.2c-0.6,1.2-1.2,1.9-2.5,1.9
					c-3.1,0-4.3,2.5-3.7,5c0,0.6,0.6,1.2,0.6,1.9c0.6,1.2,0,2.5-0.6,3.1s-2.5,0.6-3.1-0.6c-1.2-1.2-1.9-2.5-2.5-4.3
					c-0.6-1.2-1.9-2.5-3.1-3.1s-2.5-0.6-3.7,0c-0.6,0-0.6,0.6-1.2,0.6c-1.2,1.2-3.1,1.9-5,1.2c-0.6,0-1.9,0-1.9,0.6
					c-0.6,0.6-0.6,1.9,0,2.5c1.2,1.2,0.6,2.5,0.6,4.3c0,2.5-1.9,3.7-4.3,2.5c-0.6-0.6-1.2-0.6-1.9-1.2c-0.6,0-0.6-0.6-0.6-1.2
					c-0.6-0.6-0.6-1.9-1.2-3.1c-1.2,0.6-2.5,0.6-3.7,1.2c-0.6,0-1.2,0.6-1.9,0.6c-1.9,0-2.5,0-3.1-1.9s-1.9-1.9-3.1-2.5
					c-2.5-0.6-5.6-0.6-8.1-1.9h-0.6c-2.5-1.9-5-1.9-8.1-1.9c-1.9,0-3.7,0.6-5.6,0.6s-3.1,0.6-4.3,1.9c-0.6,0.6-1.2,1.2-1.9,1.2
					c-0.6-0.6-0.6-1.2-1.2-1.9v-0.6c0-0.6-0.6-1.2-1.2-0.6c-1.2,0.6-2.5-0.6-3.7-1.2c-0.6-0.6-1.9-1.9-1.9-3.1
					c-0.6-0.6-1.2-1.2-1.9-1.2c-1.2,0-3.1-0.6-4.3-0.6c-0.6,0-1.2,0-1.2-0.6c-0.6-0.6-1.2-0.6-2.5-0.6c-0.6,0-0.6-0.6-1.2-0.6
					c1.2,1.2,1.9,2.5,2.5,3.7c0,0.6,0.6,0.6,0.6,1.2c0.6,1.2,0,1.9-1.9,1.9c-1.2,0-1.2,0-1.9,0.6c0,1.2,0,1.9,0,3.1
					c0,0.6,0,1.2-1.2,1.9c0,0-0.6,0-0.6,0.6c-0.6,0.6-0.6,1.2,0,1.9c1.9,1.2,3.1,1.9,5,2.5c1.9,0,1.9,1.2,2.5,2.5
					c0.6,1.2,0,1.9-0.6,3.1c-1.2,1.2-2.5,2.5-3.7,3.7c-1.9,0.6-3.1,2.5-5,2.5c-1.2,0-2.5-0.6-3.1-1.9c-0.6-3.1-0.6-5.6,0.6-8.7
					c0-0.6,0.6-1.2,0-1.9c-5.6,0-5.6-1.2-5.6-1.9c0-1.2,0.6-1.9,0.6-3.1c0.6-1.2,0-1.9-1.9-2.5c-0.6,0-1.2,0-1.9,0
					c-0.6,0-0.6-0.6-1.9-0.6c1.2-0.6,1.9-0.6,3.1-1.2c-0.6-2.5-1.2-4.3-3.1-5.6c-0.6-0.6-1.2-1.2-1.2-2.5c0-1.9-1.2-3.1-1.9-4.3
					c-1.2-1.9-3.7-2.5-5.6-2.5c-1.9-0.6-3.1-0.6-5-1.2s-3.7-2.5-5.6-3.1c-0.6-0.6-1.2-1.2-2.5-1.9c-2.5-1.2-4.3-3.1-6.2-5
					c-1.2-0.6-1.9-1.9-3.1-2.5c-1.2-1.2-1.9-2.5-3.1-3.1c-1.2-1.2-2.5-2.5-4.3-3.7s-3.1-3.1-5-5c-1.2-1.9-3.1-3.1-5-4.3
					c-0.6,0-1.2,0-1.9,0s-1.2,0.6-1.9,0.6c-1.9,0.6-3.1,1.9-5,2.5c0.6-0.6,0.6-0.6,0-1.9c-0.6-0.6-1.2-1.2-1.9-1.2
					c-1.2,0-2.5,0-3.7,0c-2.5,0-5,0.6-7.4,0.6c-1.9,0-4.3,0.6-6.2,1.2c0.6,1.2,0.6,1.9,1.2,3.1c-1.2,0.6-2.5,0.6-3.7,0.6
					c-0.6,0-1.9,0.6-2.5,1.2c-0.6,0-0.6,0.6-1.2,0c-1.2-0.6-2.5,0-3.7,0.6h-0.6c0,0,0-0.6,0.6-0.6c0.6-0.6,1.2-1.2,1.9-1.9
					s1.2-0.6,2.5-1.2c-0.6-0.6-0.6-1.2-0.6-1.2c-0.6-0.6-1.2-0.6-1.9,0c-0.6,0.6-1.2,1.2-1.9,1.9c-0.6,0.6-1.2,0.6-1.9,0
					c-0.6-0.6-0.6-1.2,0-1.9c0-0.6,0.6-1.2,1.2-1.9c0.6-0.6,0.6-1.2,1.2-1.9c-1.2-1.2-1.9-2.5-3.1-3.1c-1.9-1.2-3.7-3.1-5-5
					c-1.2-2.5-3.1-4.3-5.6-5.6c-0.6-0.6-1.2-1.2-1.9-1.9c-0.6-0.6-0.6-0.6-1.2-1.2c-1.9,0.6-3.1,1.9-5,2.5c-0.6,0-0.6,0.6-1.2,1.2
					c-0.6,1.2-1.9,1.2-3.1,1.2c-0.6,0-1.2-0.6-0.6-1.2c0.6-1.2,1.2-2.5,3.1-1.9c0,0,0.6,0,0.6-0.6c1.2-1.2,2.5-3.1,4.3-4.3
					c-0.6-1.9-1.9-3.1-2.5-4.3c-0.6-0.6-0.6-1.2-0.6-2.5c0-0.6,0-0.6-0.6-1.2c0,0-0.6,0-1.2,0.6s-1.9,1.2-3.1,0c0-0.6,0-1.2,0.6-1.9
					l0.6-0.6c1.9-0.6,1.9-2.5,1.9-4.3v-0.6c-0.6-1.2-0.6-1.9,0.6-3.1c1.9-1.2,3.7-3.7,4.3-5.6c0.6-1.2,1.9-1.9,3.1-3.1
					s2.5-2.5,3.1-4.3h0.6c2.5,0.6,3.1-1.2,4.3-3.1c0-0.6,0-1.2,0.6-1.2c1.2-1.2,1.2-2.5,0.6-4.3c0-0.6-0.6-1.9-0.6-2.5
					s0-0.6-0.6-1.2c-1.9-1.2-1.9-2.5,0-3.7c1.2-0.6,1.2-1.9,1.9-2.5c0.6-1.2,0.6-2.5,0.6-4.3c-0.6-1.9-0.6-4.3-1.2-6.2
					c-0.6-2.5-1.2-5.6-1.9-8.1c0-0.6,0-0.6,0-1.2c0-1.9,0-3.1-0.6-5c-0.6-0.6-0.6-1.9-0.6-2.5c-0.6-1.9-1.2-3.1-3.1-3.7
					c-1.9-1.2-4.3-1.9-6.2-3.1c-0.6-0.6-1.2,0-1.9,0.6c-0.6,1.2-1.9,2.5-2.5,3.7c-0.6,0.6-1.2,1.9-1.9,3.1c-1.2,1.2-3.7,2.5-5.6,0.6
					c-0.6-1.2-1.2-1.9,0-3.1c1.2-1.9,2.5-3.7,4.3-5c0.6-0.6,1.2-1.9,1.9-2.5c0.6-1.2,0.6-2.5,0.6-3.7c-0.6-2.5-1.2-5-1.2-8.1
					s0-5.6,0.6-8.7c0.6-1.2,0.6-3.1,1.2-4.3c0-0.6,0.6-1.9,1.2-2.5c1.2-1.2,2.5-2.5,3.1-4.3c0.6-1.9,1.9-3.7,1.9-5.6
					c0-0.6,0.6-1.2,0.6-1.9c0-0.6,0.6-1.9,0.6-2.5c-0.6-1.9,0-3.1,0.6-4.3s1.2-3.1,1.9-4.3c1.2-2.5,1.2-5.6,3.7-8.1
					c0.6-1.2,1.2-2.5,1.9-3.7c0.6-2.5,1.9-4.3,3.1-6.2c0.6-0.6,0.6-0.6,0.6-1.2c0.6-1.9,1.9-3.7,3.1-5.6s1.2-3.7,1.9-5.6
					c0-0.6,0-1.2,0.6-1.9c1.9-1.9,1.2-4.3,0.6-6.8c-1.2-3.1-1.9-6.2-1.2-9.3c0-0.6,0-1.2,0.6-1.2c0.6-1.2,0.6-1.9,1.2-3.1v-0.6
					c1.2-1.2,2.5-3.1,4.3-3.7c2.5-1.2,5-1.9,8.1-2.5c2.5,0,5-1.2,6.8-3.7c0-0.6,0.6-0.6,1.2-1.2l0.6-0.6c0.6-1.2,1.2-1.9,1.9-2.5
					c1.2-1.2,2.5-3.1,3.7-4.3c1.2-1.2,2.5-3.1,4.3-5l0.6-0.6c1.2-1.2,2.5-2.5,3.7-3.1c1.2-1.2,2.5-2.5,3.7-3.7s1.9-2.5,3.1-3.7
					c1.2-0.6,2.5-1.9,3.7-3.1c1.2-1.2,2.5-2.5,3.1-3.1c1.2-1.2,3.1-2.5,4.3-3.1c1.2-0.6,2.5-1.2,3.1-3.1s1.2-3.1,1.9-5
					c0-1.2,0.6-2.5,1.2-3.7c0.6,0,1.2,0,2.5-0.6c-0.6-0.6-1.2-0.6-1.2-1.2c0-0.6,0.6-1.2,0.6-1.2c0-0.6,0.6-1.2,0.6-1.9
					c0,0,0.6,0,0.6-0.6c0,0,0.6,0,0.6-0.6C265.4,14.1,264.8,13.5,264.2,12.9c0.6,0.6,1.2,0.6,2.5,1.2c0,0,0.6,0,0.6-0.6s0-1.2,0-1.2
					s-0.6,0-1.2,0C265.4,12.3,264.8,12.9,264.2,12.9L264.2,12.9z M371.5,304.5c0-0.6-0.6-0.6-0.6-1.2c-0.6-1.2,0-1.9,0.6-2.5
					s1.2-0.6,2.5-0.6c1.2,0.6,1.9,1.2,1.9,2.5c0,0.6,0,1.9,0,2.5c0.6,2.5,0.6,2.5,3.1,2.5c1.2,0,2.5,0,3.7,0c2.5-0.6,5-1.9,7.4-2.5
					c2.5-0.6,5-1.2,7.4-1.9c0.6,0,1.2,0,2.5,0c2.5,0.6,4.3,0,6.2-1.2c0.6-0.6,1.9-0.6,2.5-1.2c1.2-0.6,2.5-0.6,3.7-1.2
					c3.1-1.9,6.2-3.1,8.7-5c1.9-1.2,3.7-2.5,5.6-3.7c1.9-1.2,3.7-2.5,5.6-3.7c1.2-0.6,3.1-1.9,4.3-3.1c2.5-1.9,4.3-3.7,6.8-5
					c1.2-0.6,1.9-1.2,2.5-1.9c1.2-0.6,1.9-1.9,3.1-2.5c0.6-0.6,1.2-1.2,2.5-1.9c0.6-0.6,0.6-0.6,0.6-1.2c1.9-1.2,3.7-3.7,5-5.6
					c1.2-1.2,2.5-2.5,3.7-4.3c1.9-1.9,3.1-4.3,5-6.8c1.2-1.2,2.5-3.1,3.1-4.3c1.2-2.5,2.5-5,4.3-6.8V243c1.2-2.5,2.5-5,3.7-7.4
					c1.9-3.1,3.1-6.8,5-9.9c0.6-1.2,1.2-2.5,1.2-3.7c1.2-2.5,1.9-5,2.5-7.4c0-0.6,0-0.6,0.6-1.2c1.9-3.7,3.1-7.4,3.7-11.8
					c0.6-2.5,1.2-5,1.9-7.4c1.2-3.7,1.2-6.8,1.9-10.5c0.6-2.5,0.6-5.6,0.6-8.1c0.6-3.7,0.6-8.1,0-11.8c0-3.1-0.6-6.8-0.6-9.9
					c0-3.1-0.6-5.6-1.2-8.7c-0.6-3.1-1.2-5.6-1.9-8.7c-1.2-2.5-1.9-5-2.5-8.1c-0.6-2.5-1.9-4.3-1.9-6.8c0-1.9-0.6-3.7-2.5-4.3
					s-3.1-1.2-5-2.5c-3.7-2.5-5.6-5.6-5-9.3c0-1.9,0.6-4.3,1.2-6.2c0.6-1.9,1.2-3.7,0-5c-0.6-1.9-1.9-3.1-2.5-4.3
					c-1.2-1.9-1.9-3.1-3.1-4.3c-1.2-2.5-2.5-5-4.3-6.8c-2.5-3.1-4.3-6.2-7.4-8.7l-0.6-0.6c-1.9-2.5-3.7-5-6.2-6.8
					c-1.2-1.2-2.5-2.5-3.7-3.1c-0.6-0.6-1.2-1.2-2.5-1.9c-1.9-1.2-3.7-1.9-5-3.1c-1.9-1.9-4.3-3.1-6.2-4.3c0,0-0.6,0-0.6-0.6
					c-2.5-1.2-4.3-1.9-6.8-3.1s-5-1.9-7.4-1.9c-0.6,0-0.6,0-1.2,0c-0.6-0.6-1.9-0.6-2.5-0.6s-0.6,0-1.2,0c-1.2-0.6-3.1,0-4.3,0
					c-2.5,0.6-5,0.6-7.4-0.6c-3.1-1.2-5.6-2.5-8.1-3.7c-1.9-1.2-3.1-2.5-5-3.7c-3.7-3.1-7.4-6.8-11.8-9.9c0.6-3.1-0.6-3.7-3.1-3.7
					c-1.2,0-2.5,0.6-3.7,1.2c-0.6,0.6-0.6,0.6-1.2,1.2c-1.9,1.2-3.1,3.1-5,4.3c-3.1,1.9-4.3,1.2-6.8,0c-0.6-0.6-1.2-1.2-1.9-1.9
					c-1.2-1.2-2.5-3.1-3.1-4.3c-1.2-2.5-3.7-2.5-6.2-2.5c-1.2,0-3.1,0.6-4.3,0.6c-2.5,0-5,1.2-6.2,3.1s-2.5,3.7-4.3,5.6
					c-0.6,0.6-1.9,1.2-2.5,2.5c-1.2,1.2-2.5,1.2-3.7,0c-0.6-0.6-1.2-0.6-1.9-1.2c-0.6,0.6-1.2,1.2-1.2,1.9c-0.6,1.2-1.2,2.5-1.9,4.3
					c-0.6,1.9-1.9,3.7-3.1,5c-0.6,0.6-0.6,0.6-1.2,1.2c-0.6,1.2-2.5,1.9-3.7,1.9c-1.2,1.2-2.5,3.1-3.1,4.3c-0.6,1.2-1.2,2.5-1.9,4.3
					c-0.6,0.6-0.6,1.9-1.2,2.5c-0.6,1.2-0.6,1.9-0.6,3.1c0.6,1.9-0.6,2.5-2.5,3.1c-1.2,0-1.2,0-1.9,1.2c0,1.9,0.6,3.1,1.2,5
					c0.6,0.6,1.2,1.9,1.2,2.5c0,1.2,0.6,1.9,1.9,2.5c0.6,0.6,1.2,1.2,1.9,1.2c0.6,0,0.6,0.6,1.2,0.6c0.6,0.6,1.2,0,1.2-0.6
					c0.6-1.9,1.2-3.7,1.2-5.6c0.6-2.5,0.6-4.3,1.2-6.8c0.6-1.2,1.2-1.9,1.9-2.5c0,0,0.6,0,1.2,0v0.6c-0.6,3.1-1.9,6.8-2.5,9.9
					c-0.6,1.2-0.6,2.5-1.2,3.7c0,0.6-0.6,1.2-1.2,1.2c-1.2,0.6-2.5,1.2-3.7,1.2c-0.6,0-1.2,0-1.9,0c-1.2-0.6-2.5-1.9-3.7-2.5
					c-0.6-0.6-1.2-1.2-1.9-1.9c-0.6-1.2-1.2-2.5-1.9-3.7c-0.6-1.2-1.2-1.9-2.5-2.5c-0.6-0.6-1.2-0.6-1.9-1.2
					c-1.2-1.2-2.5-1.9-4.3-1.9c-0.6,0-1.9,0-2.5,0s-1.9,0.6-2.5,1.2c-1.2,0.6-1.9,0.6-3.1,0c-3.1-1.2-6.2-0.6-9.3,0.6
					c-1.2,0.6-2.5,1.2-3.7,1.2c-3.1,0-5.6,0-8.7,0s-5.6-0.6-8.7-1.2c-1.2,0-2.5,0-3.7,0c-2.5,0.6-3.1,2.5-2.5,5s1.2,5.6,1.2,8.1
					c0,1.9,0,3.7,0,5.6c0,1.2,0,1.9,0,3.1c0,1.9-0.6,3.7-0.6,5.6c-0.6,3.7-2.5,6.8-5,9.3c-1.9,1.9-4.3,3.7-6.8,4.3
					c-1.2,0.6-2.5,1.2-4.3,1.9c-3.1,1.2-5.6,3.7-7.4,6.8c-0.6,1.2-1.2,2.5-1.9,3.7c-1.2,1.9-1.9,3.1-3.1,5c-0.6,1.2-1.9,2.5-2.5,3.7
					s-1.9,1.9-1.9,3.1c-1.2,2.5-1.9,5-3.1,7.4c-0.6,1.2-0.6,3.1-1.2,4.3c-1.2,2.5-1.2,5-1.2,8.1c0,0.6,0,1.2,0,2.5
					c0,3.1-0.6,6.8-0.6,9.9c0,3.1,0,6.2,0.6,9.3c0,1.2,0,3.1,0,4.3c0,2.5,0.6,5.6,0.6,8.1s0,5.6,1.2,8.1v0.6c0.6,2.5,0.6,5,1.2,7.4
					c0,0.6,0,1.2,0.6,1.9c1.2,3.7,1.9,6.8,3.1,10.5c0.6,2.5,1.9,5,2.5,7.4c0.6,2.5,3.1,5,3.7,8.1l0,0c1.9,3.7,3.7,7.4,6.2,11.2
					c0.6,1.2,1.9,2.5,2.5,3.7c1.2,1.9,1.9,3.7,3.1,5c0.6,1.2,1.9,2.5,2.5,3.1c0.6,1.2,1.2,2.5,2.5,3.7c1.2,1.2,2.5,3.1,3.7,4.3
					c1.9,3.1,4.3,5.6,6.8,7.4c1.2,1.2,2.5,1.9,3.7,3.1c0.6,0.6,1.2,0.6,1.2,1.2c0.6,0.6,1.2,1.2,2.5,1.9c5,2.5,8.7,6.2,13,9.9
					c1.9,1.9,3.7,3.7,6.2,5c2.5,1.9,4.3,3.7,7.4,4.3c0,0,0.6,0,0.6,0.6c1.2,1.2,3.1,1.9,4.3,2.5c2.5,1.2,5.6,2.5,8.1,3.7
					c0.6,0.6,1.9,0.6,2.5,1.2c1.9,0.6,3.7,1.2,5.6,1.9c1.9,0.6,3.1,1.2,5,1.2h0.6c1.2,0.6,1.9,0.6,3.1,0c0.6,0,1.2,0,1.2,0.6
					s0.6,0.6,1.2,0.6s1.2,0,2.5,0c0.6-0.6,0.6-1.2,1.2-2.5c0.6,0.6,1.2,0.6,1.2,0.6c0.6,1.2,1.9,1.2,3.1,1.2h0.6
					c1.2,0,1.9,0,2.5-0.6c0-0.6,1.2-0.6,1.9-0.6c1.9,0.6,3.7,0.6,5.6,1.2c1.2,0.6,3.1,0.6,3.7-0.6c0.6-0.6,1.2-1.2,2.5-0.6
					c1.2,0.6,1.9,0.6,3.1,0c0.6,0,1.2,0,1.2,0c1.9,0.6,3.1,0.6,5,1.2c2.5,0.6,2.5,0.6,4.3-1.2c0.6-0.6,1.9-0.6,2.5,0
					c0.6,1.2,0.6,1.9,0.6,3.1c0.6,0,0.6,0,1.2-0.6c0-1.2,0.6-1.2,1.9-1.9c0.6,0.6,0.6,0.6,1.2,0.6c1.2,1.2,1.9,1.2,2.5-0.6
					c0-0.6,0-1.2,0.6-1.2s1.2,0.6,1.2,0.6c0.6,1.2,1.9,1.9,2.5,3.1c1.2,1.2,3.1,1.2,3.7,0c0.6-0.6,1.2-0.6,1.9-0.6
					c0-0.6,0-1.2,0-1.9C372.7,304.5,372.1,304.5,371.5,304.5L371.5,304.5z M268.5,14.8c1.9,0.6,3.1,0.6,3.7-0.6
					C271,14.8,269.8,13.5,268.5,14.8z"/>
			</g>
			<g transform="matrix(1,0,0,1,64,125.95215311004785)">
				<g>
					<g>
						<g>
							<g>
								<g>
									<g transform="matrix(1,0,0,1,0,0)">
										<path id="text-0" class="st0" d="M282.6,107.4l14.1,1.7v1.4H255v-1.4l14-1.7l-16-43.6h-41.2l-14.1,37.6
											c-0.5,1.2-0.7,2.3-0.7,3.1l0,0c0,1.2,0.4,2.1,1.1,2.6s2.1,0.9,4,1.1l0,0l10.4,0.9v1.4h-36.2v-1.4l9.5-0.9
											c2.8-0.2,4.9-0.8,6.1-1.7s2.2-2.6,3.1-5.1l0,0L236.6-9.7h3.1L282.6,107.4z M212.9,61.1H252L232.9,9.2h-0.7L212.9,61.1z
											 M359.2,48.5c9.9,1.4,17.4,4.6,22.6,9.7s7.8,11.8,7.8,20.1l0,0c0,9.1-3.2,16.7-9.5,22.9s-15.9,9.3-29,9.3l0,0h-50.2v-1.4
											l14-1.4V-4.2l-14-1.4V-7h42.4c13.4,0,23.6,2.4,30.6,7.1c7,4.8,10.5,11.7,10.5,20.8l0,0c0,7.3-2.2,13.3-6.6,18
											S367,46.6,359,47.7l0,0v0.8H359.2z M342.8-4.9H328v52.2h19.7c7.6,0,13.1-2.2,16.4-6.6c3.4-4.4,5-11,5-19.7l0,0
											C369.2,3.7,360.4-4.9,342.8-4.9L342.8-4.9z M347.1,108.4c17.6,0,26.4-9.9,26.4-29.6l0,0c0-10.3-2.2-17.8-6.6-22.5
											c-4.4-4.7-11-7-19.7-7l0,0H328v59h19V108.4z"/>
									</g>
								</g>
							</g>
						</g>
					</g>
				</g>
			</g>
		</g>
		<rect x="222.2" class="st1" width="355.6" height="400"/>
	</g>
</g>
</svg>
