<?xml version="1.0" encoding="UTF-8"?>
<svg id="Layer_1" data-name="Layer 1" xmlns="http://www.w3.org/2000/svg" viewBox="0 0 930.99 797.33">
  <defs>
    <style>
      .cls-1 {
        fill: #f2f2f2;
      }

      .cls-2 {
        fill: #e6e6e6;
      }

      .cls-3 {
        fill: #fff;
      }

      .cls-4 {
        fill: #ffb6b6;
      }

      .cls-5 {
        fill: #3369e7;
      }

      .cls-6 {
        fill: #3f3d56;
      }

      .cls-7 {
        fill: #2f2e41;
      }
    </style>
  </defs>
  <path class="cls-1" d="M727.27,128.56h-63.26V667.85c0,35.58-28.85,64.43-64.43,64.43H115.96v.62c0,35.58,28.85,64.43,64.43,64.43H727.27c35.58,0,64.43-28.85,64.43-64.43h0V192.99c0-35.58-28.85-64.43-64.43-64.43Z"/>
  <rect class="cls-1" y="73.24" width="675.74" height="668.78" rx="26.74" ry="26.74"/>
  <path class="cls-3" d="M64.43,86.49c-28.27,0-51.18,22.91-51.18,51.18h0V677.58c0,28.27,22.91,51.18,51.18,51.18H413.46c137.53,0,249.03-111.49,249.03-249.03V137.67c0-28.27-22.91-51.18-51.18-51.18H64.43Z"/>
  <path class="cls-4" d="M690.53,448.82c-10.66,2.95-21.7-3.29-24.65-13.95-.29-1.03-.49-2.09-.61-3.15l-95.56-28.86,1.48-28.4,113.25,35.11c11.04-.39,20.31,8.24,20.7,19.28,.33,9.24-5.71,17.5-14.62,19.98h0Z"/>
  <path class="cls-5" d="M368.78,302.35c-9.68-8.08,4.49-48.1,.67-59.7-.23-.7-.45-1.41-.65-2.11-.43-1.5-.34-3.1,.27-4.53l35.92-16.89c9.36,3.82,17.98,9.25,25.48,16.02l55.49,63.37,55.12,49.79,24.19,10.78,80.15,35.75-.83,2.4h0s-8.81,25.59-8.81,25.59h0s17.62,12.3,17.62,12.3l-57.7-8.69-38.16-15.74-36.74-15.15c-54.25-32.65-143.51-49.57-152.02-93.18Z"/>
  <path class="cls-1" d="M624.51,596.04c-2.85,1.3-6.22,.04-7.52-2.81-.69-1.52-.68-3.27,.04-4.79-.08-.58-.14-1-.21-1.58-.09-.1-.19-.19-.28-.29-9.48-9.62-25.89-2.95-26.05,10.55-.15,11.99-1.46,24.46,1.56,35.87,1.34,5.04,3.54,9.81,6.5,14.1-18.79-17.85-33.51-39.53-43.19-63.57-2.42-6.03-4.5-12.2-6.24-18.47-1.42-5.14-2.6-10.33-3.56-15.57-5.17-28.45-3.51-57.73,4.83-85.42,6.33-7.67,10.16-17.1,10.97-27.02,.3-3.57,.09-7.16-.64-10.67-.87,.49-8.98-12.43-8.63-13.56-2.05-1.42-4.72-1.47-6.86-2.8-10.68-6.61-19.56-1.15-19.43,13.6-8.48,9.63-5.02,18.57,4.94,24.52,6.34,3.78,9.86,10.93,15.84,15.3-.18,.63-.39,1.25-.57,1.88-3.32,11.56-5.5,23.41-6.51,35.39-3.02-11.63-10.45-24.12-17.46-31.28-7.98-8.16-18.89-13.36-28.98-19.14-12.12-6.94-26.84,4.11-23.09,17.56,.04,.13,.07,.26,.11,.39,1.22,.16,2.43,.37,3.64,.62,4.16,.88,6.82,4.96,5.94,9.12-.45,2.11-1.76,3.94-3.61,5.04l-.14,.08c1.79,3.44,3.84,6.75,6.13,9.88,4.72,36.67,28.12,41.34,54.83,31.27,.7,.07,1.39,.14,2.09,.19,.68,16.27,3.48,32.38,8.32,47.93,2.88,9.16,6.5,18.07,10.82,26.65l-.17-.3c-5.88-9.11-14.72-15.91-25.03-19.25-15.26-4.83-32.87-1.8-48.29-4.42-7.42-1.26-13.17,6.52-9.36,13.01,.06,.1,.12,.21,.18,.31,2.15,.01,4.29,.16,6.42,.44,1.22,.16,2.43,.37,3.64,.62,4.16,.88,6.82,4.96,5.94,9.12-.45,2.11-1.76,3.94-3.61,5.04l-.14,.08c-.1,.06-.18,.11-.28,.17,6.17,6.27,13.38,11.43,21.3,15.25,17,26.85,41.18,20.36,62.47,2.02h.02c7.42,10.68,15.94,20.56,25.41,29.48l41.83-16.76c-.04-.52-.09-1.06-.14-1.58-3.77,1.79-7.75,3.12-11.85,3.95,1.58-5.05,3.14-10.13,4.72-15.18,.04-.1,.08-.2,.1-.3,.79-2.58,1.61-5.15,2.4-7.73h0c-2.31-6.01-5.38-11.7-9.15-16.92h0Z"/>
  <path class="cls-7" d="M394.61,632.85l-.48-.6c-1.38-8.88,.48,.6,.48,.6Z"/>
  <path class="cls-7" d="M419.11,728.64h-134c-10.41-25.88-17.64-44.39-17.64-44.39,0,0-1.75,18.13-4.26,44.39h-121.14c-1.13-71.36-2.72-144.63-3.24-167.9l232.52,5.18,23.13,29.33c.08,.49,.16,1.03,.26,1.64,.94,5.96,13.53,69.93,24.37,131.75Z"/>
  <path class="cls-5" d="M417.08,226.74l-.02-.04c-.74-1.37-1.93-2.45-3.37-3.04-14.71-11.42-30.82-16.62-48.9-13.06-2.96-8.96-5.72-8.96-5.72-8.96l-39.21-12.95-5.64-34.45-96.61-3.27-8.78,42.99s-54,9.68-54,16.68,9,7,0,7-11.41-8-19.2,0c-.67,.67-1.37,1.31-2.11,1.9-.09,.08-.19,.15-.28,.23-17.89,14.07-27.37,36.3-25.15,58.95l16.61,165.23,17.73,176.31,242.64,10.1,16.25-150.03,16.53-249.62c.15-1.37-.12-2.75-.77-3.96Z"/>
  <path class="cls-3" d="M18.77,669.83c1.39,3.49,2.78,6.04,4.19,7.3l470.58,1c1.41-1.26,2.81-3.82,4.19-7.3,16.46-41.41-14.59-86.31-59.15-86.39l-360.65-.68c-44.5-.08-75.61,44.73-59.17,86.08Z"/>
  <path class="cls-2" d="M493.92,679.13h-.38s-470.96-1-470.96-1l-.28-.25c-1.47-1.31-2.92-3.82-4.46-7.68h0c-7.91-19.57-5.43-41.81,6.6-59.15,12.01-17.7,32-28.29,53.38-28.29h.12l360.65,.68c21.46,.04,41.51,10.71,53.52,28.49,12.01,17.4,14.47,39.67,6.55,59.27-1.53,3.85-2.99,6.36-4.46,7.68l-.29,.26Zm-439.52-3.09l399.01-1.21c28.16-.09,48.88-27.27,40.54-54.17-.79-2.69-1.97-5.25-3.5-7.6-11.65-17.23-31.07-27.57-51.87-27.62l-360.65-.68h-.12c-4.58,.15-9.1,1.12-13.34,2.85-23.3,8.81-38.87,30.97-40.17,55.85-.02,.32-.03,.63-.05,.95-.86,16.59,11.9,30.74,28.5,31.59h0c.55,.03,1.09,.04,1.64,.04h0Z"/>
  <path class="cls-1" d="M585.06,316.46c-5.15-21.65-4.29-42.97,4.53-63.85,.19-2.69,2.53-4.72,5.22-4.53l48.22,3.42c2.69,.19,4.72,2.53,4.53,5.22l-4.53,63.85c-.19,2.69-2.53,4.72-5.22,4.53l-48.22-3.42c-2.69-.19-4.72-2.53-4.53-5.22Z"/>
  <path class="cls-3" d="M590.13,297.44c-4.12-10.67-1.49-25.34,2.91-41.05,.18-2.52,2.37-4.42,4.89-4.24l41.44,2.94c2.52,.18,4.42,2.37,4.24,4.89l-4.03,56.82c-.18,2.52-2.37,4.42-4.89,4.24l-25.67-1.82c-11.22-.81-19.68-10.55-18.89-21.78Z"/>
  <path class="cls-5" d="M618.82,300.22c-1.27-.22-2.53-.44-3.8-.65,.58-1.38,.92-2.84,.99-4.34,.6-7.99,.66-16.06,.98-24.07-.02-.84-.72-1.5-1.56-1.47-.37,.01-.73,.16-1,.41-3.18,2.63-6.36,5.27-9.54,7.9-1.49,1.23,.64,3.34,2.12,2.12,2.28-1.89,4.56-3.78,6.85-5.67-.21,5.25-.42,10.49-.63,15.74-.1,2.52,.21,5.58-.83,7.94-.14,.32-.33,.62-.55,.89-1.4-.24-2.8-.48-4.2-.72-1.01-.17-2.29,.67-1.85,1.85,.96,2.56,3.81,3.37,6.25,2.38,.21-.1,.42-.21,.62-.33l5.34,.92c1.89,.32,2.7-2.57,.8-2.89Z"/>
  <path class="cls-1" d="M865.06,531.46c-5.15-21.65-4.29-42.97,4.53-63.85,.19-2.69,2.53-4.72,5.22-4.53l48.22,3.42c2.69,.19,4.72,2.53,4.53,5.22l-4.53,63.85c-.19,2.69-2.53,4.72-5.22,4.53l-48.22-3.42c-2.69-.19-4.72-2.53-4.53-5.22Z"/>
  <path class="cls-3" d="M870.13,512.44c-4.12-10.67-1.49-25.34,2.91-41.05,.18-2.52,2.37-4.42,4.89-4.24l41.44,2.94c2.52,.18,4.42,2.37,4.24,4.89l-4.03,56.82c-.18,2.52-2.37,4.42-4.89,4.24l-25.67-1.82c-11.22-.81-19.68-10.55-18.89-21.78Z"/>
  <path class="cls-5" d="M897.18,501.6c.55-.26,1.07-.57,1.56-.94,2.63-2.17,3.73-5.67,2.81-8.95-1.94-7.14-10.49-7.19-16.39-6.33-1.9,.28-1.09,3.17,.8,2.89,3.98-.58,10.22-1.05,12.35,3.3,1,2.09,.64,4.57-.91,6.28-.91,.91-2.1,1.48-3.38,1.61-1.24-.54-2.58-.79-3.93-.73-1.39,.07-2.16,2.09-.76,2.8,1.25,.62,2.62,.94,4.01,.95,2.36,1.14,3.81,3.58,3.67,6.2-.56,3.67-3.98,6.2-7.65,5.64h-.04c-1.89-.38-2.69,2.51-.8,2.89,5.29,1,10.39-2.48,11.39-7.78,.03-.14,.05-.28,.07-.41,.24-2.76-.79-5.49-2.8-7.4Z"/>
  <path class="cls-1" d="M811.06,189.46c-5.15-21.65-4.29-42.97,4.53-63.85,.19-2.69,2.53-4.72,5.22-4.53l48.22,3.42c2.69,.19,4.72,2.53,4.53,5.22l-4.53,63.85c-.19,2.69-2.53,4.72-5.22,4.53l-48.22-3.42c-2.69-.19-4.72-2.53-4.53-5.22Z"/>
  <path class="cls-3" d="M816.13,170.44c-4.12-10.67-1.49-25.34,2.91-41.05,.18-2.52,2.37-4.42,4.89-4.24l41.44,2.94c2.52,.18,4.42,2.37,4.24,4.89l-4.03,56.82c-.18,2.52-2.37,4.42-4.89,4.24l-25.67-1.82c-11.22-.81-19.68-10.55-18.89-21.78Z"/>
  <path class="cls-5" d="M841.61,141.84c-4.25-1.47-8.97,1.89-9.45,6.24-.55,4.94,4.76,8.84,9.36,7.49,1.85-.54,1.06-3.44-.8-2.89-3.37,.98-6.97-2.66-5.03-5.91,.9-1.61,2.7-2.49,4.53-2.21,1.53,.42,2.77,1.55,3.34,3.03,1.65,3.73-.31,7.51-2.92,10.22-1.49,1.54-3.23,2.75-4.83,4.15-1.57,1.19-2.57,2.99-2.75,4.95,.09,2.23,1.4,4.22,3.41,5.18,2.56,1.32,5.47,.9,8.19,.46,1.9-.31,1.09-3.2-.8-2.89-2.38,.38-5.94,.96-7.45-1.52-1.29-2.12,1.37-3.99,2.82-5.12,3.64-2.84,7.33-6.51,7.87-11.34,.45-3.96-1.56-8.48-5.51-9.85Z"/>
  <path class="cls-5" d="M109.8,434.13l23.76,10.7c-11.17,9.06-28.18,21.25-44.84,26.89l-26.47-18.05c-9.86-38.02-3.82-77.2,8.03-110.33,6.57-18.41,15.27-35.98,25.94-52.36-2.22-22.65,7.26-44.88,25.15-58.95,.1-.08,.19-.15,.28-.23,17.71,15.37,28.5,37.22,29.92,60.63l.53,8.76,1.06,17.26,2.69,44.08-31.9,49.6-14.15,22Z"/>
  <path class="cls-7" d="M178.15,622.31c.56,.71,1.42,1.11,2.32,1.11h162.34c1.65,0,2.99-1.34,2.98-2.99,0-.2-.02-.41-.06-.61l-2.52-11.97c-.21-.99-.91-1.81-1.86-2.17-.34-.13-.7-.2-1.06-.2H182.98c-.36,0-.72,.07-1.06,.2-.95,.36-1.65,1.18-1.86,2.17l-2.52,11.97c-.18,.88,.04,1.79,.61,2.49Z"/>
  <path class="cls-7" d="M229.03,513.87v102.56h71.85v-102.56c0-1.51-.98-2.85-2.43-3.3-.33-.11-.68-.16-1.03-.16h-64.92c-1.91,0-3.47,1.54-3.47,3.46h0s0,0,0,0Zm28.04,35.24c.04-4.24,3.51-7.64,7.74-7.6,4.18,.04,7.56,3.42,7.6,7.6v11.9c-.02,4.24-3.47,7.65-7.71,7.63-4.21-.02-7.61-3.43-7.63-7.63v-11.9Z"/>
  <circle class="cls-4" cx="270.97" cy="84.6" r="62.53"/>
  <path class="cls-7" d="M345.83,73.66c-6.74,2.09-13.24,3.33-17.62-2.2s-3.24-11.85-9.76-14.52c-5.27-2.16-11.35-1.23-16.65,.77-.95,.35-1.87,.75-2.78,1.15-.51-.44-1.01-.86-1.56-1.26-4.14-2.95-9.26-4.19-14.3-3.48,3.68,1.78,6.71,4.67,8.66,8.26-1.81,.9-3.75,1.58-5.49,2.58-23.88,13.73-50.43,19.26-48.27-3.66,7.23,19.03,1.61,25.82-8.99,43.2l-.42,1.01c1.06-4.56-6.38-4.78-12.8-3.22-4.74,1.15-1.67,12.21,4.41,19.83-13.59-20.47-33.95-51.71-16.35-67.39,2.6-2.31,4.23-5.57,4.69-13.92,.28-4.95,8.7-6.19,13.15-3.99,1.31-15.15,10.64-28.44,24.45-34.81,13.61-6.06,27.46,3.26,42.25,5.07,8.21,1,14.43,4.31,14.76,14.78,.22,6.98,10.73,9.47,17.6,10.71,4.36,.77,9.27,.31,12.76,3.06,4.03,3.19,4.08,8.81,4.05,14.21-3.94-.11-7.83,.95-11.17,3.06,4.08,.1,8.03,1.49,11.28,3.97,.06,.04,.12,.08,.18,.13,1.19,9.08,.7,10.99,7.91,16.65Z"/>
  <path class="cls-6" d="M390.93,378.54c24.43-7.59,50.59,.62,75.15-6.39,5.65-1.55,10.99-4.05,15.79-7.42,4.09-3.1,7.93-6.52,11.49-10.23,7.39-7.31,15.42-14.98,26.52-14.9,14.62,.11,25.85,10.97,35.59,20.56,1.38,1.36,3.5-.76,2.12-2.12-8.95-8.81-18.63-18.11-31.38-20.74-5.72-1.27-11.69-.77-17.12,1.42-4.71,2.14-9.01,5.08-12.72,8.7-3.92,3.6-7.55,7.52-11.52,11.06-4.15,3.78-8.94,6.8-14.14,8.92-11.26,4.48-23.62,5.03-35.59,4.89-15.04-.16-30.43-1.19-45,3.34-1.84,.57-1.05,3.47,.8,2.89h0Z"/>
  <path class="cls-6" d="M560.83,339.95l7.51,13.24,3.63,6.41c.65,1.14,1.31,2.27,1.94,3.42,.39,.71,1.23,1.98,.42,2.65-.71,.35-1.5,.47-2.28,.36-1.32,0-2.65-.03-3.97-.04l-7.45-.08-15.39-.16c-.83,.03-1.48,.72-1.45,1.55,.03,.79,.66,1.42,1.45,1.45,8.94,.09,17.88,.28,26.81,.27,1.56,.15,3.12-.28,4.39-1.2,1.27-1.27,1.59-3.2,.8-4.81-.88-1.92-1.89-3.78-3.03-5.56l-3.27-5.77-7.51-13.24c-.44-.7-1.37-.91-2.07-.47-.67,.42-.89,1.29-.52,1.98h0Z"/>
  <path class="cls-2" d="M660.1,372.39h-69.03c-1.59,0-2.88-1.28-2.89-2.87,0-1.59,1.28-2.88,2.87-2.89,0,0,0,0,0,0,0,0,.01,0,.02,0h69.03c1.59,0,2.88,1.28,2.89,2.87,0,1.59-1.28,2.88-2.87,2.89,0,0,0,0,0,0,0,0-.01,0-.02,0Z"/>
  <path class="cls-2" d="M660.1,418.72h-69.03c-1.59,0-2.88-1.28-2.89-2.87,0-1.59,1.28-2.88,2.87-2.88h69.05c1.59,0,2.88,1.28,2.89,2.87s-1.28,2.88-2.87,2.89h-.02Z"/>
  <path class="cls-2" d="M727.86,395.56h-136.8c-1.59,0-2.88-1.28-2.89-2.87,0-1.59,1.28-2.88,2.87-2.89,0,0,0,0,0,0h136.81c1.59,0,2.88,1.28,2.89,2.87,0,1.59-1.28,2.88-2.87,2.89,0,0,0,0,0,0,0,0-.01,0-.02,0Z"/>
  <path class="cls-6" d="M636.27,345.23c15.19-20.59,41.12-29.47,56.77-49.66,3.64-4.59,6.45-9.78,8.33-15.33,1.46-4.92,2.53-9.96,3.2-15.05,1.62-10.27,3.54-21.2,12.54-27.71,11.85-8.57,27.32-6.47,40.86-4.52,.82,.1,1.57-.49,1.67-1.31,.09-.78-.44-1.51-1.21-1.65-12.43-1.8-25.74-3.55-37.56,1.88-5.36,2.37-9.87,6.3-12.95,11.28-2.53,4.52-4.25,9.44-5.1,14.54-1.03,5.23-1.63,10.53-2.73,15.74-1.11,5.5-3.17,10.77-6.1,15.56-6.42,10.28-16.05,18.04-25.78,25.03-12.21,8.77-25.22,17.07-34.28,29.34-1.14,1.55,1.21,3.42,2.36,1.86h0Z"/>
  <path class="cls-6" d="M750.31,213.5l13.89,6.22,6.72,3.01c1.19,.53,2.4,1.05,3.59,1.6,.73,.34,2.16,.86,1.91,1.88-.17,.69-1.1,1.25-1.63,1.64-1.07,.79-2.15,1.55-3.22,2.32l-6.05,4.35-12.49,8.99c-.65,.51-.76,1.46-.25,2.11,.49,.62,1.37,.75,2.02,.31,7.25-5.22,14.57-10.36,21.76-15.66,1.34-.8,2.35-2.07,2.82-3.56,.27-1.77-.61-3.52-2.21-4.35-1.85-1.03-3.77-1.92-5.74-2.69l-6.05-2.71-13.89-6.22c-.77-.3-1.64,.08-1.95,.85-.29,.73,.04,1.57,.76,1.91h0Z"/>
  <path class="cls-5" d="M875.1,229.39h-69.03c-1.59,0-2.88-1.28-2.89-2.87,0-1.59,1.28-2.88,2.87-2.88h69.05c1.59,0,2.88,1.28,2.89,2.87,0,1.59-1.28,2.88-2.87,2.89h0s-.01,0-.02,0Z"/>
  <path class="cls-6" d="M689.27,436.04c15.19,20.59,41.12,29.47,56.77,49.66,3.64,4.59,6.45,9.78,8.33,15.33,1.46,4.92,2.53,9.96,3.2,15.05,1.62,10.27,3.54,21.2,12.54,27.71,11.85,8.57,27.32,6.47,40.86,4.52,.82-.1,1.57,.49,1.67,1.31,.09,.78-.44,1.51-1.21,1.65-12.43,1.8-25.74,3.55-37.56-1.88-5.36-2.37-9.87-6.3-12.95-11.28-2.53-4.52-4.25-9.44-5.1-14.54-1.03-5.23-1.63-10.53-2.73-15.74-1.11-5.5-3.17-10.77-6.1-15.56-6.42-10.28-16.05-18.04-25.78-25.03-12.21-8.77-25.22-17.07-34.28-29.34-1.14-1.55,1.21-3.42,2.36-1.86h0Z"/>
  <path class="cls-6" d="M803.31,567.77l13.89-6.22,6.72-3.01c1.19-.53,2.4-1.05,3.59-1.6,.73-.34,2.16-.86,1.91-1.88-.17-.69-1.1-1.25-1.63-1.64-1.07-.79-2.15-1.55-3.22-2.32l-6.05-4.35-12.49-8.99c-.65-.51-.76-1.46-.25-2.11,.49-.62,1.37-.75,2.02-.31,7.25,5.22,14.57,10.36,21.76,15.66,1.34,.8,2.35,2.07,2.82,3.56,.27,1.77-.61,3.52-2.21,4.35-1.85,1.03-3.77,1.92-5.74,2.69l-6.05,2.71-13.89,6.22c-.77,.3-1.64-.08-1.95-.85-.29-.73,.04-1.57,.76-1.9h0Z"/>
  <path class="cls-5" d="M928.1,560.39h-69.03c-1.59,0-2.88-1.28-2.89-2.87,0-1.59,1.27-2.88,2.86-2.89,0,0,.02,0,.03,0h69.03c1.59,0,2.88,1.28,2.89,2.86s-1.28,2.88-2.86,2.89c0,0-.02,0-.03,0Z"/>
  <path class="cls-4" d="M141.17,448.59c-4.98,9.88-17.03,13.84-26.9,8.86-.96-.48-1.87-1.04-2.74-1.67l-71.9,34.21-4.82-20.15,73.22-43.15c7.13-8.43,19.75-9.49,28.19-2.35,7.06,5.97,9.1,16,4.95,24.25h0Z"/>
  <path class="cls-5" d="M113.46,344.67l-50.59,103.37,21.38-9.69,14.88-6.75,7.46,28.34s-4.94,4.8-12.73,11.11c-11.17,9.06-28.18,21.25-44.84,26.89-13.04,4.42-25.85,4.83-35.47-3.41-18.26-15.64-.41-77.75,16.84-125.04,11.55-31.67,22.82-56.68,22.82-56.68,0-33.4,64.82-81.43,76.85-88h0c6.87-3.74,8.77,1.71,8.77,1.71l-37.7,55.19,11.27,45.7,3.19,12.91-2.13,4.35Z"/>
  <path class="cls-6" d="M116,354.35v187.26c0,4.97,4.03,9,9,9H402.5c4.97,0,9-4.03,9-9v-187.26c-.01-4.96-4.04-8.98-9-8.99H125c-4.96,0-8.99,4.03-9,8.99Z"/>
</svg>