<?xml version="1.0" encoding="utf-8"?>
<!-- Generator: Adobe Illustrator 27.0.1, SVG Export Plug-In . SVG Version: 6.00 Build 0)  -->
<svg version="1.0" id="Layer_1" xmlns="http://www.w3.org/2000/svg" xmlns:xlink="http://www.w3.org/1999/xlink" x="0px" y="0px"
	 viewBox="0 0 552.8 515.5" style="enable-background:new 0 0 552.8 515.5;" xml:space="preserve">
<style type="text/css">
	.st0{fill:#F2F2F2;}
	.st1{fill:#3369E7;}
	.st2{fill:#A0616A;}
	.st3{fill:#2F2E41;}
	.st4{fill:#3F3D56;}
	.st5{fill:#CCCCCC;}
</style>
<path class="st0" d="M372.6,365.4H174.3c-16.7,0-30.2-13.6-30.2-30.2V136.9c0-16.7,13.6-30.2,30.2-30.2h198.3
	c16.7,0,30.2,13.6,30.2,30.2v198.3C402.9,351.9,389.3,365.4,372.6,365.4z M174.3,111.5c-14,0-25.4,11.4-25.4,25.4v198.3
	c0,14,11.4,25.4,25.4,25.4h138.9c46.8,0,84.8-38,84.8-84.8V136.9c0-14-11.4-25.4-25.4-25.4C372.6,111.5,174.3,111.5,174.3,111.5z"/>
<path class="st0" d="M195.7,132.1c-9.4,0-17,7.6-17,17v26.6c0,9.4,7.6,17,17,17h26.6c9.4,0,17-7.6,17-17v-26.6c0-9.4-7.6-17-17-17
	H195.7z"/>
<path class="st0" d="M195.7,207.1c-9.4,0-17,7.6-17,17v26.6c0,9.4,7.6,17,17,17h26.6c9.4,0,17-7.6,17-17v-26.6c0-9.4-7.6-17-17-17
	L195.7,207.1L195.7,207.1z"/>
<path class="st0" d="M195.7,282.1c-9.4,0-17,7.6-17,17v26.6c0,9.4,7.6,17,17,17h26.6c9.4,0,17-7.6,17-17v-26.6c0-9.4-7.6-17-17-17
	H195.7z"/>
<g>
	<path class="st1" d="M213.4,67.1c-11.8,0-21.4,9.6-21.4,21.4v33.6c0,11.8,9.6,21.4,21.4,21.4h33.6c11.8,0,21.4-9.6,21.4-21.4V88.6
		c0-11.8-9.6-21.4-21.4-21.4L213.4,67.1L213.4,67.1z"/>
	<path class="st1" d="M323.9,160.9c-11.8,0-21.4,9.6-21.4,21.4v33.6c0,11.8,9.6,21.4,21.4,21.4h33.6c11.8,0,21.4-9.6,21.4-21.4
		v-33.6c0-11.8-9.6-21.4-21.4-21.4L323.9,160.9L323.9,160.9z"/>
	<g>
		<polygon class="st2" points="275.8,498.8 269,498.8 266,471.8 276.1,471.9 		"/>
		<path class="st3" d="M254,509.7c0,1.7,1.3,3.1,3,3.1l13.6,0.1l2.4-4.8l0.9,4.8l5.1,0l-1.3-17.2l-1.8-0.1l-7.3-0.5l-2.3-0.2l0,4.9
			l-10.9,7.4C254.5,507.7,254,508.7,254,509.7L254,509.7z"/>
	</g>
	<g>
		<polygon class="st2" points="310.5,498.8 303.7,498.8 300.7,471.8 310.8,471.9 		"/>
		<path class="st3" d="M288.7,509.7c0,1.7,1.3,3.1,3,3.1l13.6,0.1l2.4-4.8l0.9,4.8l5.1,0l-1.3-17.2l-1.8-0.1l-7.3-0.5l-2.3-0.2
			l0,4.9l-10.9,7.4C289.2,507.7,288.7,508.7,288.7,509.7L288.7,509.7z"/>
	</g>
	<path class="st3" d="M249.1,281.2l27.6,0.9l26.2,5.8c0,0-2.6,3.2,6.1,11.9c0,0,11.6,20.4,3.5,40.2l-3.5,79.1
		c0,0,10.2,55.8,2.4,73.6l-10.3,0.6l-17.4-73.5l-8.5-79.2l-4.1,78c0,0,15.6,53.5,5.7,74.8l-11.1-0.6l-19.1-74.1
		c0,0-8.1-85.5-7-101.8C240.9,300.4,249.1,281.2,249.1,281.2L249.1,281.2z"/>
	<g>
		<path class="st2" d="M341.9,156.1c-3.8,1-6,4.8-5.1,8.6c0.4,1.7,1.5,3.1,2.9,4.1l0,0l-0.5,13l9.9,4.6l0.8-20l-0.1,0
			c0.9-1.5,1.2-3.4,0.7-5.2C349.5,157.4,345.7,155.1,341.9,156.1L341.9,156.1z"/>
		<path class="st4" d="M286.4,202.5c-2.1-2.1-3.3-4.9-3.3-7.9c-0.1-4.1,2-7.8,5.5-9.9c4-2.5,9.1-2.2,12.8,0.6l31.2,23.5l5.6-33.8
			l11.9,3.8l-2.8,44.1c-0.2,3.1-1.9,5.8-4.7,7.3c-2.7,1.5-5.9,1.4-8.6-0.1l-45.1-25.7C287.9,203.8,287.1,203.2,286.4,202.5
			L286.4,202.5z"/>
	</g>
	<g>
		<path class="st2" d="M238.8,137.2c2,3.4,0.9,7.7-2.5,9.7c-1.5,0.9-3.3,1.2-4.9,0.9l0,0l-8.8,9.6l-10.3-3.7l13.5-14.7l0,0.1
			c0.5-1.7,1.6-3.2,3.2-4.2C232.5,132.7,236.8,133.8,238.8,137.2z"/>
		<path class="st4" d="M242.6,208.8l-50.1-13.5c-3-0.8-5.3-3.1-6.2-6s-0.2-6.1,1.8-8.4l29-33.3l11.2,5.7l-19.9,27.9l38.7,5.3
			c4.7,0.6,8.4,4,9.6,8.6c1,4-0.2,8.1-3.1,10.9c-2.2,2.1-5,3.3-8,3.3C244.6,209.2,243.6,209.1,242.6,208.8L242.6,208.8z"/>
	</g>
	<path class="st4" d="M314,292.8l-70,3.2c-1.9-2.9-1.4-7.3,1.3-12.8c10.2-20.8,2.4-60.1-2.7-80.5c-1.5-5.7,2.5-11.4,8.3-12l6.6-0.7
		l6.1-18.6h21.4l8.9,10.1l15.1,9.1c-2.7,28.2-14.4,68.1,2.2,88.1C314.7,283.1,315.7,287.8,314,292.8L314,292.8z"/>
	<circle class="st2" cx="271.5" cy="151" r="20.8"/>
	<path class="st3" d="M295.1,137.7c2.9-10.6-28.7-19.6-34.8-11.1c-0.9-1.2-4-1.9-5.5-1.6c-1.4,0.4-2.7,1.3-3.9,2.2
		c-1.6,1.3-3.3,2.6-4.3,4.4c-1,1.8-1.2,4.2,0.2,5.8c1.1,1.2,3,7.8,4.6,8.1c1.1,0.2,2.1,0.4,2.9,0.5c0.7-1.1,2.6-2.4,2.4-3.7
		c1.1,0.7,0.7,2,0.5,3.3c-0.7,4.4-17.3,38.1-7.8,28.1c0.9,0.6,2.1,1.1,3.5,1.6c2.3-3.4,4.1-7.5,5.4-11.7l0,0.1
		c0.4,3.7,3.1,6.7,6.7,7.7c14.3,4.1,25.8-1.9,29.8-12.9c-1.5-3-2.1-2.6-2-2.7c1.8-1.2,4.3-0.4,5.1,1.6c0.2,0.6,0.4,1.1,0.6,1.5
		C300.5,151.5,303,152.6,295.1,137.7L295.1,137.7z"/>
	<path class="st3" d="M285.2,130l-1.5-7.5c-0.1-0.6-0.2-1.3,0-1.9c0.4-0.7,1.3-1,2.1-0.9c0.8,0.1,1.4,0.9,2.2,1
		c2.8,0.5,6.5-2.3,7.5,4.7c0.4,2.9,5.1,3.2,6.7,5.7s1.8,6.1-0.4,8.2c-1.7,1.6-4.4,1.8-6.6,1c-2.2-0.8-4-2.5-5.5-4.3s-3-3.7-4.7-5.3"
		/>
	<path class="st1" d="M296.2,141.3c-5.7-0.8-9.6-2.9-11.5-6.2c-2.6-4.3-0.8-9.1-0.8-9.3l1.2,0.4c0,0-1.6,4.4,0.7,8.2
		c1.8,2.9,5.3,4.8,10.6,5.5L296.2,141.3z"/>
</g>
<path class="st1" d="M322.9,60.8c-16.8,0-30.4-13.6-30.4-30.4S306.2,0,322.9,0s30.4,13.6,30.4,30.4S339.7,60.8,322.9,60.8z
	 M322.9,12.2c-10.1,0-18.2,8.2-18.2,18.2s8.2,18.2,18.2,18.2s18.2-8.2,18.2-18.2S333,12.2,322.9,12.2z"/>
<path class="st1" d="M369.7,81.4c-1.5,0-3-0.5-4.2-1.6L337,53c-2.5-2.3-2.6-6.1-0.3-8.6c2.3-2.5,6.1-2.6,8.6-0.3l28.5,26.7
	c2.5,2.3,2.6,6.1,0.3,8.6C372.9,80.8,371.3,81.4,369.7,81.4L369.7,81.4z"/>
<g>
	<path class="st0" d="M498.6,498.1c2.1,0.1,3.2-2.4,1.6-3.9l-0.2-0.6c0,0,0-0.1,0.1-0.1c2.1-5,9.2-4.9,11.2,0
		c1.8,4.4,4.2,8.9,4.8,13.5c0.3,2.1,0.1,4.2-0.3,6.2c4.3-9.4,6.6-19.7,6.6-30c0-2.6-0.1-5.2-0.4-7.8c-0.2-2.1-0.6-4.2-1-6.3
		c-2.3-11.3-7.3-22-14.5-31c-3.5-1.9-6.3-4.9-8.1-8.4c-0.6-1.3-1.1-2.7-1.3-4.1c0.4,0.1,1.5-5.9,1.2-6.3c0.5-0.8,1.5-1.2,2.1-2.1
		c3-4,7.1-3.3,9.2,2.2c4.6,2.3,4.6,6.1,1.8,9.8c-1.8,2.3-2,5.5-3.6,8c0.2,0.2,0.3,0.4,0.5,0.6c3,3.8,5.5,7.9,7.7,12.2
		c-0.6-4.8,0.3-10.5,1.8-14.2c1.7-4.2,5-7.8,7.9-11.4c3.5-4.4,10.6-2.5,11.2,3.1c0,0.1,0,0.1,0,0.2c-0.4,0.2-0.8,0.5-1.3,0.8
		c-2.3,1.5-1.5,5.2,1.2,5.6l0.1,0c-0.2,1.5-0.4,3.1-0.8,4.6c3.7,14.3-4.3,19.5-15.7,19.8c-0.3,0.1-0.5,0.3-0.7,0.4
		c1.2,3.3,2.1,6.6,2.8,10c0.6,3,1,6,1.3,9c0.3,3.8,0.3,7.7-0.1,11.5l0-0.1c0.8-4.2,3.1-8.1,6.4-10.9c4.9-4.1,11.9-5.6,17.3-8.8
		c2.6-1.6,5.9,0.5,5.4,3.4l0,0.1c-0.8,0.3-1.6,0.7-2.3,1.1c-0.4,0.2-0.8,0.5-1.3,0.8c-2.3,1.5-1.5,5.2,1.2,5.6l0.1,0
		c0,0,0.1,0,0.1,0c-1.4,3.2-3.3,6.2-5.6,8.8c-2.3,12.5-12.3,13.7-22.9,10h0c-1.2,5.1-2.9,10-5,14.7h-18c-0.1-0.2-0.1-0.4-0.2-0.6
		c1.7,0.1,3.3,0,5-0.3c-1.3-1.6-2.7-3.3-4-4.9c0,0-0.1-0.1-0.1-0.1c-0.7-0.8-1.4-1.7-2-2.5l0,0C497.6,503.2,497.9,500.6,498.6,498.1
		L498.6,498.1L498.6,498.1z"/>
	<path class="st5" d="M0,514.3c0,0.7,0.5,1.2,1.2,1.2h550.3c0.7,0,1.2-0.5,1.2-1.2c0-0.7-0.5-1.2-1.2-1.2H1.2
		C0.5,513.1,0,513.6,0,514.3z"/>
</g>
</svg>
