<?xml version="1.0" encoding="UTF-8"?>
<svg id="Layer_1" data-name="Layer 1" xmlns="http://www.w3.org/2000/svg" viewBox="0 0 866.81 443.07">
  <path d="M828.33,244.95l-2.72,21.62-6.74,53.7h-135.38c1.06-12.04,2.5-29.36,4.05-48.07,.15-1.87,.31-3.75,.46-5.64,3.87-47.01,8.11-100.22,8.11-100.22l17.8,3.32,34.53,6.42,14.07,2.62,37.68,7.02c18.79,3.49,31.71,30.69,28.14,59.23h0Z" style="fill: #f2f2f2;"/>
  <polygon points="725.93 79.36 742.58 108.49 710.58 131.17 696.93 95.36 725.93 79.36" style="fill: #ffb6b6;"/>
  <circle cx="704.74" cy="65.68" r="41.24" style="fill: #ffb6b6;"/>
  <path d="M701.77,74.9c-3.27-4.98-1.99-7.59-4.73-9.42,0,0-1.1-.74-9-1.16h0c-1.77-12.72-3.97-14.27-3.97-14.27-2.54-1.78-6.32-1.2-8.67-.11-4.97,2.3-4.39,7.27-7.73,8.22-4.62,1.31-13.02-6.09-13.85-14.57-.68-6.92,3.78-13.63,5.55-13.28,1.75,.35,5.95-5,8.21-4.92,1.55,.06,7.87-2.69,9.57-2.48,1.86,.23,7.98,3.43,8.23,2.7,1.77-5.07,1.25-6.48,2.76-7.93,2.67-2.57,7.03-.78,13.87,.18,14.07,1.98,16.53-2.66,23.74,.48,3.64,1.59,6.69,5.87,12.64,14.38,8.32,11.89,12.48,17.84,12.51,24.78,.03,7.07-3.4,6.63-4.9,17.1-1.68,11.66,1.88,16.99-2,20.78-3,2.93-9.11,3.62-12.32,1.05-5.49-4.4,1.7-15.01-4.38-22.77-3.73-4.76-11.24-6.88-14.68-4.53-3.89,2.66-1.75,10.47-4.48,11.21-2.34,.63-5.77-4.59-6.34-5.46h0Z" style="fill: #2f2e41;"/>
  <path d="M797.85,237.34c-1.15,19.67-5.72,25.88-7.32,49.11-.35,5.1-.56,11.02-.56,18.08,0,1.8,0,3.54,0,5.24,0,3.62-.07,7.04-.49,10.51-.32,2.77-.87,5.56-1.78,8.5h-88.83s0-.04-.02-.06c-.52-2.26-.85-4.42-1.1-6.49-.08-.66-.15-1.31-.21-1.95-.08-.75-.15-1.49-.22-2.22-.27-2.91-.54-5.66-1.18-8.29-.86-3.63-2.42-7.05-5.62-10.35-1.31-1.35-2.62-2.4-3.9-3.32-.25-.17-.49-.34-.74-.51-3.54-2.43-6.89-4.18-9.79-9.14-.05-.07-.09-.15-.13-.22-.5-.87-1.8-3.15-2.74-6.19-.99-3.16-1.59-7.13-.51-11.19,2.57-9.62,12.09-10.58,19.87-20.3,.84-1.05,1.67-2.21,2.46-3.5,3.52-5.72,4.47-10.76,5.59-16.75,.18-.97,.34-1.93,.47-2.86,.1-.7,.19-1.39,.26-2.07,.62-5.71,.32-10.63-.41-15.03-2.38-14.41-9.4-23.33-4.44-36.26,1.56-4.06,3.77-7.11,6-9.72,4.72-5.53,9.57-9.12,8.73-16.26-.85-7.2-6.31-8.19-6.92-14.48-.31-3.18,.73-6.53,2.68-9.82h0c6.24-10.6,21.82-20.35,31.72-20.04,1.83,.05,3.45,.46,4.8,1.25,4.89,2.88,2.85,9.17,10.34,17.99,5.57,6.55,11.87,9.17,14.26,10.41,9.47,4.94,17.17,19.51,22.4,38.14,.04,.14,.08,.28,.12,.43,3.23,11.67,5.51,24.92,6.64,38.36,.48,5.69,.76,11.41,.82,17.07,.05,4.52-.05,8.44-.26,11.93Z" style="fill: #3369e7;"/>
  <g>
    <polygon points="731.33 304.73 729.52 309.77 728.38 312.93 725.74 320.28 722.68 328.78 703.01 328.78 706.31 320.28 707.84 316.32 710.38 309.77 714.64 298.77 731.33 304.73" style="fill: #ffb6b6;"/>
    <path d="M790.84,167.83c-.05,.65-.12,1.37-.19,2.15-.78,7.94-2.62,22.15-5.31,38.36-1.42,8.55-3.08,17.66-4.95,26.71-4.02,19.53-9.02,38.76-14.67,51.4-1.01,2.28-2.05,4.34-3.11,6.16-.81,1.39-1.66,2.76-2.55,4.11-2.88,4.43-6.11,8.63-9.46,12.55-.13,.17-.28,.33-.43,.5-.54,.64-1.1,1.27-1.66,1.9-2.74,3.09-5.54,5.97-8.25,8.61-3.3,3.22-6.48,6.07-9.33,8.5h-31.94l-.13-.06-4.6-2.04s1.31-1.54,3.5-4.45c.45-.59,.93-1.24,1.45-1.95,.64-.87,1.33-1.83,2.07-2.87,1.54-2.18,3.29-4.74,5.17-7.64,3.64-5.61,7.79-12.51,11.98-20.5,.48-.93,.97-1.87,1.46-2.82,0-.03,.03-.06,.04-.09,.83-1.62,1.65-3.29,2.47-4.99,6.95-14.46,8.94-26.46,9.51-30.35,.8-5.5,1.91-13.19,1.61-21.65-.2-5.58-1.01-11.48-2.94-17.34h0c-.4-1.24-.85-2.47-1.36-3.69-.91-2.19-1.99-4.35-3.27-6.48-5.65-9.38-10.24-9.77-13.89-19.99-1.08-3.03-3.53-9.87-2.78-17.09h0c.09-.9,.24-1.8,.44-2.7h0c.05-.26,.12-.52,.19-.77,.57-2.21,1.51-4.4,2.94-6.48,2.79-4.04,6.6-6.44,10.01-7.87h.01c3.94-1.65,7.34-2,8-2.06,14.61-1.3,25.94,10.98,32.13,17.69,2.39,2.59,4.58,4.76,6.58,6.53,15.57,13.9,19.84,5.02,20.95,.43,.17-.71,.26-1.32,.31-1.72h0Z" style="fill: #3369e7;"/>
    <path d="M790.89,167.31s0,.22-.05,.5c.02-.15,.03-.3,.04-.44,0-.03,0-.05,0-.06Z" style="fill: #6c63ff;"/>
  </g>
  <path d="M711.47,378.32H175.42c-4.98,0-9.04,4.05-9.04,9.03s4.06,9.04,9.04,9.04H711.47c4.98,0,9.03-4.05,9.03-9.04s-4.05-9.03-9.03-9.03Z" style="fill: #e6e6e6;"/>
  <path d="M592.51,425H294.37c-4.98,0-9.03,4.05-9.03,9.03s4.05,9.04,9.03,9.04h298.14c4.98,0,9.04-4.06,9.04-9.04s-4.06-9.03-9.04-9.03Z" style="fill: #e6e6e6;"/>
  <polygon points="235.07 81.27 268.85 67.06 283.34 96.76 247.84 111.25 235.07 81.27" style="fill: #ffb6b6;"/>
  <polygon points="235.07 81.27 268.85 67.06 283.34 96.76 247.84 111.25 235.07 81.27" style="isolation: isolate; opacity: .1;"/>
  <path d="M239.87,69.96l33.33,38.4s-23.18,73.18-46.37,79.7-65.93,38.4-65.93,38.4l-53.61-34.78,26.08-38.4s63.03-86.22,79.7-86.22,26.81,2.9,26.81,2.9h0Z" style="fill: #3369e7;"/>
  <path d="M194.84,320.28H117.26l-4.91-6.56-20.03-26.77-4.61-6.16s-17.39-31.88-13.77-60.86,41.3-35.5,41.3-35.5h1.55l46.12,40.53-2.75,37.72,14.61,24.27,20.06,33.33Z" style="fill: #2f2e41;"/>
  <polygon points="133.15 320.28 112.36 320.28 112.36 289.49 133.15 320.28" style="fill: #2f2e41;"/>
  <path d="M581.64,273.53l-2.59,13.42-6.42,33.33h-128.96c1.01-7.47,2.38-18.22,3.85-29.83,.14-1.16,.3-2.33,.44-3.5,3.69-29.18,7.72-62.19,7.72-62.19l16.95,2.06,32.89,3.98,13.4,1.62,35.89,4.35c17.9,2.17,30.21,19.05,26.8,36.76h0Z" style="fill: #f2f2f2;"/>
  <path d="M764.14,320.28h-69.95c1.07-1.25,1.67-1.98,1.67-1.98l20.97-3.46,43.2-7.13s1.97,5.09,4.11,12.57h0Z" style="fill: #2f2e41;"/>
  <polygon points="467.45 95.77 497.87 138.78 444.81 140.37 439.12 99.94 467.45 95.77" style="fill: #a0616a;"/>
  <polygon points="467.45 95.77 497.87 138.78 444.81 140.37 439.12 99.94 467.45 95.77" style="isolation: isolate; opacity: .1;"/>
  <path id="uuid-ae755ff6-bb09-410e-86b1-7d1b81a37005-135" d="M317.45,184.9c-3.9-11.26-12.88-18.37-20.04-15.89-7.16,2.49-9.81,13.63-5.9,24.89,1.5,4.52,4.06,8.62,7.46,11.94l17.14,47.5,22.12-8.52-19.24-45.92c.61-4.72,.09-9.53-1.53-14.01h0Z" style="fill: #a0616a;"/>
  <path d="M523.35,162.98l-.04,43.84-4.08,16.19-8.39,33.31-6.11,30.63-4.55,22.82-1.62,8.15c-1.22,.82-2.44,1.6-3.66,2.35h-105.98c-6.02-3.62-9.39-6.43-9.39-6.43,0,0,1.67-1.57,3.57-4.08,3.22-4.25,7.11-11.2,4.72-17.85-.5-1.39-.63-3.09-.48-4.98,.97-12.48,14.06-33.57,14.06-33.57l-2.71-31.31-1.19-13.72,8.38-66.91,27.31-15.87,4.71-.46,46.54-2.51,19.23,1.11,.88,.24,18.79,39.04h0Z" style="fill: #ccc;"/>
  <g>
    <polygon points="525.41 320.28 502.23 320.28 501.21 309.77 501.19 309.56 507.75 309.11 524.83 307.95 525.12 314.24 525.36 319.06 525.41 320.28" style="fill: #ffb6b6;"/>
    <path d="M531.12,173.58l9.74,57.14-7.95,56.23-1.24,8.75-2.19,15.45-.67,4.75,.02,.51,.17,3.85h-27.53l-1.01-10.51-.09-.94-2.07-21.52-.04-.36-4.4-45.63,8.62-32.98,.64-2.43h0s3.75-56.48,3.75-56.48l-2.91-25.66-.03-.24c.06,.04,.11,.07,.17,.11,.15,.09,.3,.19,.45,.29,16.92,10.74,27.01,29.58,26.57,49.64h0Z" style="fill: #ccc;"/>
  </g>
  <path d="M415.75,152.38l-10.59-10.95s-22.66,10.22-23.79,15.89c-1.13,5.67-41.15,88.93-41.15,88.93l-17.41-46.5-22.66,15.13s18.18,72.19,35.19,75.58,74-85.45,74-85.45l6.41-52.63h0Z" style="fill: #ccc;"/>
  <path d="M845.64,286.45H21.16c-11.67,0-21.16,9.5-21.16,21.17s9.49,21.16,21.16,21.16H845.64c11.67,0,21.17-9.49,21.17-21.16s-9.5-21.17-21.17-21.17Z" style="fill: #e6e6e6;"/>
  <path d="M518.52,221.94l-1.6,74.8c-.16,7.24-6.07,13.03-13.31,13.03h-137.6c-7.07,0-12.91-5.53-13.3-12.59l-4.09-74.8c-.42-7.63,5.66-14.04,13.3-14.04h143.29c7.47,0,13.47,6.14,13.31,13.6h0Z" style="fill: #3f3d56;"/>
  <circle cx="296.38" cy="66.41" r="32.92" style="fill: #ffb6b6;"/>
  <polygon points="241.32 152.55 244.94 191.68 269.58 290.93 248.3 298.39 212.34 190.23 207.37 146.75 241.32 152.55" style="fill: #ffb6b6;"/>
  <path d="M231.52,221.94l-1.6,74.8c-.16,7.24-6.07,13.03-13.31,13.03H79c-7.07,0-12.91-5.53-13.3-12.59l-4.09-74.8c-.42-7.63,5.66-14.04,13.3-14.04H218.21c7.47,0,13.47,6.14,13.31,13.6h0Z" style="fill: #3f3d56;"/>
  <ellipse cx="273.5" cy="298.78" rx="26" ry="11.5" style="fill: #ffb6b6;"/>
  <path d="M190.24,158.53l14.85-79.16s41.3-5.8,42.75,7.97-1.04,81.04-1.04,81.04l-56.56-9.85h0Z" style="fill: #3369e7;"/>
  <path d="M283.1,71.59s20.37-7.27,28.96-11.18c8.59-3.91,25.66,23.37,26.04,8.96,.38-14.41-5.52-20.45-5.52-20.45,0,0-1.47-31.52-33.22-27.57,0,0,6.98-15.77-15.94-18.21-22.92-2.44-58.59,52.92-55.4,61.19,3.19,8.27,7.02,15.11-2.04,23.96s-26.03,58.77-13.12,72.2,13.76,19.26,4.91,27.62-29.75,26.53-7.15,29.69c22.61,3.15-2.07,.8,14.79-14.03s41.45-14.22,32.26-38c-9.18-23.79,6.77-57.87,4.77-63.04s4.47-38,4.47-38c0,0,15.06-2.21,16.18,6.86h0Z" style="fill: #2f2e41;"/>
  <g>
    <circle cx="451.19" cy="75.5" r="35.84" style="fill: #a0616a;"/>
    <path d="M454.05,27.32c-1.04,.61-2.43-.31-2.76-1.46-.33-1.15,.05-2.38,.44-3.52l1.93-5.73c1.37-4.06,2.83-8.27,5.8-11.36,4.48-4.67,11.61-5.85,18.02-4.99,8.24,1.1,16.36,5.56,20.19,12.94,3.83,7.37,2.2,17.66-4.72,22.27,9.86,11.3,13.3,23.9,12.76,38.89-.54,14.99-16.88,28.79-27.53,39.35-2.38-1.44-4.54-8.2-3.23-10.66,1.31-2.46-.57-5.3,1.05-7.56,1.62-2.26,2.98,1.34,1.34-.91-1.03-1.42,3-4.68,1.46-5.53-7.43-4.11-9.9-13.37-14.57-20.46-5.63-8.56-15.27-14.35-25.46-15.31-5.62-.53-11.55,.43-16.15,3.69-4.6,3.26-7.58,9.09-6.52,14.63-2.77-2.81-4.14-6.92-3.62-10.83,.52-3.91,2.92-7.52,6.32-9.51-2.07-6.84-.3-14.71,4.51-20.01,4.8-5.29,24.28-4.39,31.29-3,0,0-.54-.93-.54-.93Z" style="fill: #2f2e41;"/>
    <path d="M455.14,53.47c9.28,1,15.99,9.05,21.65,16.47,3.26,4.28,6.68,9.01,6.6,14.39-.08,5.44-3.72,10.11-5.46,15.27-2.84,8.43-.07,18.46,6.69,24.23-6.68,1.27-13.91-3.74-15.07-10.45-1.34-7.81,4.57-15.34,3.87-23.23-.62-6.95-6.1-12.3-10.75-17.5-4.66-5.2-9.03-12.09-6.89-18.74l-.65-.45h0Z" style="fill: #2f2e41;"/>
  </g>
  <g>
    <path id="uuid-aec20554-f6ec-4c5b-9d97-717cd04239bf-136" d="M593.95,290.98c-9.2,5.23-13.95,14.22-10.62,20.07s13.48,6.35,22.68,1.12c3.7-2.04,6.86-4.94,9.22-8.45l38.69-22.66-11.02-17.93-36.97,24.24c-4.22,.23-8.33,1.47-11.98,3.61h0Z" style="fill: #ffb6b6;"/>
    <path d="M724.93,124.84c-1.16-.46-11.3-4.3-20.56,.77-10.64,5.83-12.28,19.13-12.86,23.79-1.33,10.78,2.59,13.19,3.42,24.1,1.55,20.41,5.63-2.87-.89,6.44-2.26,3.22-25.32,53.2-38.03,62.99-24.73,19.04-40.44,32.44-40.44,32.44l17.93,19.48s28.33-7.55,53.38-23.81c25.69-16.68,38.53-25.02,48.47-41.34,.86-1.4,21.33-36.18,10.33-74.62-2.51-8.77-7.1-24.84-20.75-30.25h0Z" style="fill: #3369e7;"/>
  </g>
  <path d="M817.52,221.94l-1.6,74.8c-.16,7.24-6.07,13.03-13.31,13.03h-137.6c-7.07,0-12.91-5.53-13.3-12.59l-4.09-74.8c-.42-7.63,5.66-14.04,13.3-14.04h143.29c7.47,0,13.47,6.14,13.31,13.6h0Z" style="fill: #3f3d56;"/>
</svg>