<svg xmlns="http://www.w3.org/2000/svg" version="1.1" xmlns:xlink="http://www.w3.org/1999/xlink" xmlns:svgjs="http://svgjs.dev/svgjs" width="1000" height="426" viewBox="0 0 1000 426"><g transform="matrix(1,0,0,1,0.1066666666666265,0.4925624999999343)"><svg viewBox="0 0 375 160" data-background-color="#ffffff" preserveAspectRatio="xMidYMid meet" height="426" width="1000" xmlns="http://www.w3.org/2000/svg" xmlns:xlink="http://www.w3.org/1999/xlink"><g id="tight-bounds" transform="matrix(1,0,0,1,-0.03976036071776434,-0.18489160156246953)"><svg viewBox="0 0 375.07952880859375 160.36940002441406" height="160.36940002441406" width="375.07952880859375"><g><svg></svg></g><g><svg viewBox="0 0 375.07952880859375 160.36940002441406" height="160.36940002441406" width="375.07952880859375"><g transform="matrix(1,0,0,1,-10.220239639282227,-46.0111083984375)"><path xmlns="http://www.w3.org/2000/svg" d="M10.22 201.189v-155.178h375.08v155.178l-81.885 0 0-4.977h76.908v-145.224h-365.126v145.224l76.908 0 0 4.977z" fill="#ed1703" fill-rule="nonzero" stroke="none" stroke-width="1" stroke-linecap="butt" stroke-linejoin="miter" stroke-miterlimit="10" stroke-dasharray="" stroke-dashoffset="0" font-family="none" font-weight="none" font-size="none" text-anchor="none" style="mix-blend-mode: normal" data-fill-palette-color="tertiary"></path><g><path xmlns="http://www.w3.org/2000/svg" d="M123.002 185.962h2.134v19.971h-2.029v-16.809l-6.481 8.984h-1.08l-6.482-8.984v16.809h-2.028v-19.971h2.16l6.903 9.564zM131.775 198.582v0.053c0 1.774 0.404 3.205 1.212 4.294 0.808 1.089 2.099 1.633 3.873 1.634v0c1.282 0 2.705-0.36 4.268-1.081v0l0.632 1.687c-1.546 0.808-3.214 1.212-5.005 1.211v0c-2.231 0-3.955-0.703-5.175-2.107-1.222-1.405-1.834-3.276-1.834-5.612v0c0-1.616 0.281-2.995 0.844-4.136 0.562-1.142 1.331-2.008 2.308-2.598 0.973-0.587 2.066-0.88 3.277-0.88v0c1.844 0 3.293 0.58 4.347 1.739 1.054 1.159 1.59 2.837 1.607 5.032v0 0.764zM136.175 192.865c-1.142 0-2.085 0.328-2.83 0.985-0.748 0.66-1.228 1.649-1.438 2.967v0h8.167c-0.105-1.352-0.474-2.35-1.106-2.993-0.632-0.639-1.563-0.959-2.793-0.959zM155.592 183.643h1.95v22.29h-1.95v-1.423c-1.423 1.247-2.845 1.871-4.268 1.87v0c-1.932 0-3.472-0.655-4.621-1.965-1.152-1.307-1.728-3.216-1.728-5.728v0c0-2.494 0.576-4.391 1.728-5.691 1.149-1.3 2.689-1.95 4.621-1.949v0c1.44 0 2.863 0.615 4.268 1.844v0zM151.509 204.51c1.37 0 2.731-0.588 4.083-1.765v0-8.062c-1.37-1.194-2.731-1.792-4.083-1.792v0c-1.475 0-2.594 0.492-3.357 1.475-0.766 0.984-1.149 2.424-1.149 4.321v0c0 1.915 0.378 3.364 1.133 4.347 0.755 0.984 1.879 1.475 3.373 1.476zM162.548 188.623v-3.978h1.95v3.978zM162.548 205.933v-14.465h1.95v14.465zM175.563 206.381c-2.231-0.018-3.943-0.72-5.138-2.108-1.194-1.388-1.792-3.258-1.791-5.612v0c0-2.336 0.597-4.189 1.791-5.559 1.194-1.37 2.907-2.055 5.138-2.055v0c0.755 0 1.414 0.053 1.976 0.158 0.562 0.105 1.159 0.29 1.792 0.553v0 1.95c-0.65-0.299-1.259-0.509-1.829-0.632-0.573-0.123-1.193-0.184-1.86-0.185v0c-1.739 0.018-3.003 0.544-3.794 1.581-0.79 1.036-1.186 2.424-1.185 4.163v0c0 1.774 0.392 3.191 1.175 4.252 0.78 1.064 2.039 1.605 3.778 1.623v0c1.3 0 2.696-0.36 4.189-1.08v0l0.659 1.712c-1.563 0.826-3.197 1.238-4.901 1.239zM188.051 191.468c1.44 0 2.535 0.258 3.283 0.775 0.745 0.52 1.245 1.214 1.502 2.081 0.253 0.871 0.379 1.965 0.379 3.283v0 8.326h-1.949v-1.502c-0.703 0.65-1.391 1.119-2.066 1.407-0.678 0.292-1.403 0.437-2.176 0.437v0c-0.861 0-1.651-0.198-2.371-0.595-0.72-0.393-1.294-0.959-1.723-1.697-0.432-0.738-0.648-1.616-0.649-2.635v0c0-1.581 0.492-2.807 1.476-3.678 0.984-0.868 2.301-1.302 3.952-1.301v0c0.597 0 1.208 0.074 1.834 0.221 0.622 0.151 1.196 0.367 1.723 0.648v0c-0.018-0.948-0.114-1.704-0.29-2.266-0.176-0.562-0.518-0.998-1.028-1.306-0.509-0.306-1.273-0.458-2.292-0.459v0h-1.686v-1.739zM187.182 204.51c1.388 0 2.749-0.606 4.084-1.818v0-3.794c-1.001-0.527-2.125-0.79-3.373-0.79v0c-1.019 0-1.874 0.249-2.566 0.748-0.696 0.502-1.043 1.333-1.043 2.492v0c0 1.107 0.295 1.909 0.885 2.408 0.587 0.502 1.258 0.754 2.013 0.754zM200.908 206.275c-1.265 0-2.16-0.246-2.687-0.738-0.527-0.492-0.79-1.352-0.79-2.582v0-19.312h1.949v18.891c0 0.72 0.114 1.212 0.343 1.475 0.228 0.263 0.659 0.395 1.291 0.396v0c0.492 0 0.913-0.035 1.264-0.106v0 1.818c-0.509 0.105-0.966 0.158-1.37 0.158zM233.921 185.962h2.107l-5.98 20.208h-2.055l-5.112-17.046-5.111 17.046h-2.055l-5.981-20.208h2.082l4.927 17.178 5.006-17.178h2.239l5.032 17.204zM245.961 191.152h0.606v1.844h-0.606c-1.546 0-3.047 0.65-4.505 1.95v0 10.987h-1.95v-14.465h1.95v1.687c0.685-0.632 1.414-1.124 2.186-1.476 0.773-0.351 1.546-0.527 2.319-0.527zM249.86 188.623v-3.978h1.95v3.978zM249.86 205.933v-14.465h1.95v14.465zM262.507 193.418h-3.373v9.116c0 0.72 0.114 1.212 0.343 1.475 0.228 0.263 0.659 0.395 1.291 0.396v0c0.527 0 1.098-0.07 1.712-0.211v0 1.844c-0.65 0.158-1.291 0.237-1.923 0.237v0c-0.878 0-1.558-0.114-2.039-0.342-0.485-0.228-0.827-0.588-1.028-1.081-0.204-0.492-0.306-1.168-0.305-2.028v0-9.406h-1.845v-1.871h1.845v-5.005h1.949v5.005h3.373zM267.354 198.582v0.053c0 1.774 0.404 3.205 1.212 4.294 0.808 1.089 2.099 1.633 3.873 1.634v0c1.282 0 2.705-0.36 4.268-1.081v0l0.633 1.687c-1.546 0.808-3.214 1.212-5.006 1.211v0c-2.231 0-3.955-0.703-5.175-2.107-1.222-1.405-1.834-3.276-1.833-5.612v0c0-1.616 0.281-2.995 0.843-4.136 0.562-1.142 1.331-2.008 2.308-2.598 0.973-0.587 2.066-0.88 3.277-0.88v0c1.844 0 3.293 0.58 4.347 1.739 1.054 1.159 1.59 2.837 1.608 5.032v0 0.764zM271.754 192.865c-1.142 0-2.085 0.328-2.829 0.985-0.748 0.66-1.228 1.649-1.439 2.967v0h8.167c-0.105-1.352-0.474-2.35-1.106-2.993-0.632-0.639-1.563-0.959-2.793-0.959zM287.878 191.152h0.606v1.844h-0.606c-1.546 0-3.047 0.65-4.505 1.95v0 10.987h-1.95v-14.465h1.95v1.687c0.685-0.632 1.414-1.124 2.187-1.476 0.773-0.351 1.546-0.527 2.318-0.527z" fill="#111111" fill-rule="nonzero" stroke="none" stroke-width="1" stroke-linecap="butt" stroke-linejoin="miter" stroke-miterlimit="10" stroke-dasharray="" stroke-dashoffset="0" font-family="none" font-weight="none" font-size="none" text-anchor="none" style="mix-blend-mode: normal" data-fill-palette-color="secondary"></path></g></g><g transform="matrix(1,0,0,1,29.331764404296877,52.59120076183222)"><svg viewBox="0 0 316.416 55.186998500749624" height="55.186998500749624" width="316.416"><g><svg viewBox="0 0 316.416 55.186998500749624" height="55.186998500749624" width="316.416"><g><svg viewBox="0 0 316.416 55.186998500749624" height="55.186998500749624" width="316.416"><g><svg viewBox="0 0 316.416 55.186998500749624" height="55.186998500749624" width="316.416"><g id="textblocktransform"><svg viewBox="0 0 316.416 55.186998500749624" height="55.186998500749624" width="316.416" id="textblock"><g><svg viewBox="0 0 316.416 55.186998500749624" height="55.186998500749624" width="316.416"><g transform="matrix(1,0,0,1,0,0)"><svg width="316.416" viewBox="4.309999942779541 -31.610000610351562 229.97999572753906 40.12000274658203" height="55.186998500749624" data-palette-color="#ed1703"><path d="M4.31-1.9L4.31-29.48Q4.31-30.17 4.71-30.57L4.71-30.57Q5.4-31.26 6.21-31.38L6.21-31.38 16.32-31.38Q20.52-31.38 23.22-29.14L23.22-29.14Q25.86-27.01 25.86-23.45L25.86-23.45Q25.86-20.86 24.25-18.97L24.25-18.97Q22.53-17.01 19.83-16.38L19.83-16.38 19.83-16.32Q25-15.4 26.67-11.38L26.67-11.38Q27.13-10.11 27.13-8.51 27.13-6.9 26.61-5.34 26.09-3.79 24.83-2.64L24.83-2.64Q21.95 0 16.72 0L16.72 0 6.21 0Q5.52 0 5-0.46L5-0.46Q4.31-1.03 4.31-1.9L4.31-1.9ZM8.1-14.71L8.1-2.99 14.71-2.99Q19.08-2.99 20.86-4.25L20.86-4.25Q23.1-5.63 23.1-8.85L23.1-8.85Q23.1-13.91 17.13-14.6L17.13-14.6Q15.34-14.71 13.1-14.71L13.1-14.71 8.1-14.71ZM21.9-23.1L21.9-23.1Q21.9-28.39 14.6-28.28L14.6-28.28 8.1-28.28 8.1-17.59 14.66-17.59Q19.48-17.59 21.26-20.52L21.26-20.52Q21.9-21.55 21.9-23.1ZM48.85-1.61L48.85-14.14Q48.85-16.78 47.35-18.28L47.35-18.28Q46.03-19.54 44.28-19.54 42.53-19.54 41.32-19.14 40.11-18.74 39.19-17.82L39.19-17.82Q37.24-15.98 37.24-12.59L37.24-12.59 37.24-1.61Q37.24-0.8 36.66-0.4 36.09 0 35.4 0L35.4 0Q34.71 0 34.25-0.43 33.79-0.86 33.79-1.61L33.79-1.61 33.79-29.66Q33.79-30.46 34.37-30.86 34.94-31.26 35.51-31.26L35.51-31.26Q36.2-31.26 36.72-30.89 37.24-30.52 37.24-29.66L37.24-29.66 37.24-18.1Q38.04-20.11 40.23-21.21L40.23-21.21Q42.24-22.24 44.22-22.24 46.2-22.24 47.58-21.75 48.96-21.26 50.11-20.34L50.11-20.34Q52.41-18.16 52.41-13.91L52.41-13.91 52.41-1.61Q52.41-0.8 51.81-0.4 51.2 0 50.57 0L50.57 0Q49.88 0 49.37-0.43 48.85-0.86 48.85-1.61L48.85-1.61ZM69.48-13.28L69.48-13.28Q70.68-13.28 71.89-13.22L71.89-13.22 71.89-15.06Q71.89-19.54 66.89-19.54L66.89-19.54Q64.65-19.54 63.62-19.14L63.62-19.14Q61.78-18.45 60.97-17.96 60.17-17.47 59.71-17.47 59.25-17.47 58.85-17.82 58.44-18.16 58.44-18.74L58.44-18.74Q58.44-19.2 58.96-19.66L58.96-19.66Q61.66-22.24 66.95-22.24L66.95-22.24Q73.04-22.24 74.77-18.16L74.77-18.16Q75.34-16.72 75.34-14.83L75.34-14.83 75.22-1.55Q75.22-0.8 74.71-0.4 74.19 0 73.56 0 72.93 0 72.41-0.34 71.89-0.69 71.89-1.49L71.89-1.49 71.89-3.56Q70.51-0.57 66.95 0.17L66.95 0.17Q65.86 0.46 64.48 0.46 63.1 0.46 61.75 0.06 60.4-0.34 59.36-1.21L59.36-1.21Q57.24-2.99 57.24-6.03L57.24-6.03Q57.24-13.28 69.48-13.28ZM71.89-8.74L71.89-10.69Q70.97-10.57 69.77-10.57 68.56-10.57 67.29-10.55 66.03-10.52 64.88-10.26 63.73-10 62.81-9.48L62.81-9.48Q60.86-8.45 60.74-6.09L60.74-6.09Q60.74-4.25 62.24-3.22L62.24-3.22Q63.39-2.3 65.51-2.24L65.51-2.24Q68.1-2.24 70-3.91L70-3.91Q71.72-5.52 71.89-8.74L71.89-8.74ZM99.76-19.54L92.98-2.64Q92.41-1.26 91.75-0.63 91.08 0 89.88 0L89.88 0Q88.67 0 88.01-0.6 87.35-1.21 86.89-2.64L86.89-2.64 79.71-19.54Q79.19-20.52 80.22-21.26L80.22-21.26Q80.8-21.72 81.37-21.84L81.37-21.84Q82.64-21.84 82.98-20.57L82.98-20.57 89.88-4.02 96.54-20.57Q96.95-21.72 98.04-21.84L98.04-21.84Q99.19-21.84 99.76-20.86L99.76-20.86Q99.99-20.52 99.94-20.2 99.88-19.89 99.76-19.54L99.76-19.54ZM108.04 6.32L110.62-0.17 102.17-19.48Q102-19.83 102-20.17 102-20.52 102.17-20.83 102.35-21.15 102.58-21.26L102.58-21.26Q103.27-21.72 103.9-21.84L103.9-21.84Q105.1-21.84 105.62-20.69L105.62-20.69 112.46-4.14 119.24-20.69Q119.76-21.84 120.59-21.84 121.43-21.84 121.97-21.35 122.52-20.86 122.52-20.34 122.52-19.83 122.35-19.48L122.35-19.48 111.31 7.36Q110.79 8.51 109.7 8.51L109.7 8.51Q109.01 8.51 108.55 8.16L108.55 8.16Q107.86 7.59 107.86 7.07 107.86 6.55 108.04 6.32L108.04 6.32ZM137.34-13.28L137.34-13.28Q138.55-13.28 139.76-13.22L139.76-13.22 139.76-15.06Q139.76-19.54 134.76-19.54L134.76-19.54Q132.52-19.54 131.48-19.14L131.48-19.14Q129.64-18.45 128.84-17.96 128.03-17.47 127.57-17.47 127.11-17.47 126.71-17.82 126.31-18.16 126.31-18.74L126.31-18.74Q126.31-19.2 126.83-19.66L126.83-19.66Q129.53-22.24 134.82-22.24L134.82-22.24Q140.91-22.24 142.63-18.16L142.63-18.16Q143.21-16.72 143.21-14.83L143.21-14.83 143.09-1.55Q143.09-0.8 142.57-0.4 142.06 0 141.42 0 140.79 0 140.27-0.34 139.76-0.69 139.76-1.49L139.76-1.49 139.76-3.56Q138.38-0.57 134.82 0.17L134.82 0.17Q133.72 0.46 132.34 0.46 130.96 0.46 129.61 0.06 128.26-0.34 127.23-1.21L127.23-1.21Q125.1-2.99 125.1-6.03L125.1-6.03Q125.1-13.28 137.34-13.28ZM139.76-8.74L139.76-10.69Q138.84-10.57 137.63-10.57 136.42-10.57 135.16-10.55 133.9-10.52 132.75-10.26 131.6-10 130.68-9.48L130.68-9.48Q128.72-8.45 128.61-6.09L128.61-6.09Q128.61-4.25 130.1-3.22L130.1-3.22Q131.25-2.3 133.38-2.24L133.38-2.24Q135.96-2.24 137.86-3.91L137.86-3.91Q139.59-5.52 139.76-8.74L139.76-8.74ZM165.04-23.45L165.04-23.45Q165.04-22.24 165.84-21.18 166.65-20.11 167.91-19.43 169.18-18.74 170.79-18.22 172.4-17.7 174.18-17.13 175.96-16.55 177.68-15.86 179.41-15.17 180.67-14.14L180.67-14.14Q183.43-11.9 183.43-8.05L183.43-8.05Q183.43-6.21 182.57-4.57 181.71-2.93 180.15-1.84L180.15-1.84Q176.99 0.46 171.71 0.46L171.71 0.46Q166.71 0.46 162.91-2.07L162.91-2.07Q160.56-3.56 160.56-4.6L160.56-4.6Q160.56-5.52 161.48-6.09L161.48-6.09Q161.71-6.32 162.05-6.32 162.4-6.32 162.8-6.03 163.2-5.75 163.75-5.34 164.29-4.94 165.13-4.45 165.96-3.97 166.88-3.56L166.88-3.56Q169.18-2.64 171.36-2.7 173.55-2.76 174.87-3.05 176.19-3.33 177.22-4.02L177.22-4.02Q179.41-5.52 179.47-7.82L179.47-7.82Q179.47-10.69 176.65-12.24L176.65-12.24Q175.38-12.93 173.8-13.48 172.22-14.02 170.47-14.54 168.72-15.06 166.99-15.8 165.27-16.55 163.95-17.59L163.95-17.59Q161.13-19.83 161.13-23.33L161.13-23.33Q161.13-25.17 162.02-26.78 162.91-28.39 164.47-29.43L164.47-29.43Q167.45-31.55 171.94-31.61L171.94-31.61Q178.43-31.61 182.4-27.41L182.4-27.41Q182.63-27.07 182.63-26.64 182.63-26.21 182.6-25.92 182.57-25.63 182.28-25.34L182.28-25.34Q181.88-24.83 181.22-24.83 180.56-24.83 179.81-25.69L179.81-25.69Q177.91-27.07 176.76-27.47L176.76-27.47Q174.47-28.39 172.28-28.39L172.28-28.39Q169.47-28.39 167.45-27.24L167.45-27.24Q165.04-25.86 165.04-23.45ZM207.91-20.11L207.91-1.61Q207.91-0.8 207.31-0.4 206.7 0 206.27 0 205.84 0 205.5-0.09 205.15-0.17 204.92-0.46L204.92-0.46Q204.35-0.86 204.35-1.61L204.35-1.61 204.35-3.62Q202.97-0.57 199.29 0.17L199.29 0.17Q198.14 0.46 196.82 0.46 195.5 0.46 194.06 0 192.62-0.46 191.59-1.49L191.59-1.49Q189.29-3.68 189.29-8.05L189.29-8.05 189.29-20.11Q189.29-20.92 189.81-21.38 190.32-21.84 191.01-21.84L191.01-21.84Q191.7-21.84 192.22-21.38 192.74-20.92 192.74-20.11L192.74-20.11 192.74-7.76Q192.74-4.66 194-3.45L194-3.45Q195.27-2.24 197.8-2.24L197.8-2.24Q202.05-2.24 203.66-5.69L203.66-5.69Q204.29-6.9 204.35-8.45L204.35-8.45 204.35-20.11Q204.35-20.92 204.92-21.38 205.5-21.84 206.19-21.84L206.19-21.84Q206.88-21.84 207.39-21.38 207.91-20.92 207.91-20.11L207.91-20.11ZM218.08-20.11L218.08-18.16Q219.46-22.24 224.12-22.24L224.12-22.24Q224.98-22.24 225.41-21.75 225.84-21.26 225.84-20.72 225.84-20.17 225.41-19.68 224.98-19.2 223.83-19.2 222.68-19.2 221.53-18.74 220.38-18.28 219.63-17.41L219.63-17.41Q218.08-15.52 218.08-12.41L218.08-12.41 218.08-1.61Q218.08-0.8 217.51-0.4 216.93 0 216.47 0 216.01 0 215.72-0.09 215.44-0.17 215.15-0.46L215.15-0.46Q214.63-0.8 214.63-1.61L214.63-1.61 214.63-20.11Q214.63-20.86 215.15-21.35 215.67-21.84 216.44-21.84 217.22-21.84 217.65-21.35 218.08-20.86 218.08-20.11L218.08-20.11ZM234.29-29.43L234.29-29.43Q234.29-28.51 233.65-27.93 233.02-27.36 231.87-27.36 230.72-27.36 230.09-27.93 229.46-28.51 229.46-29.43L229.46-29.43Q229.46-30.23 230.09-30.8 230.72-31.38 231.9-31.38 233.08-31.38 233.68-30.8 234.29-30.23 234.29-29.43ZM230.15-1.72L230.15-20Q230.15-20.86 230.72-21.35 231.3-21.84 231.76-21.84 232.22-21.84 232.5-21.7 232.79-21.55 233.08-21.26L233.08-21.26Q233.71-20.86 233.71-20L233.71-20 233.71-1.72Q233.71-0.86 233.14-0.43 232.56 0 231.87 0L231.87 0Q231.18 0 230.66-0.43 230.15-0.86 230.15-1.72L230.15-1.72Z" opacity="1" transform="matrix(1,0,0,1,0,0)" fill="#ed1703" class="wordmark-text-0" data-fill-palette-color="primary" id="text-0"></path></svg></g></svg></g></svg></g></svg></g><g></g></svg></g></svg></g></svg></g></svg></g><defs></defs></svg><rect width="375.07952880859375" height="160.36940002441406" fill="none" stroke="none" visibility="hidden"></rect></g></svg></g></svg>